<?xml version="1.0" encoding="utf-8" standalone="no"?>
<!DOCTYPE svg PUBLIC "-//W3C//DTD SVG 1.1//EN"
  "http://www.w3.org/Graphics/SVG/1.1/DTD/svg11.dtd">
<svg xmlns:xlink="http://www.w3.org/1999/xlink" width="872.812317pt" height="451.560781pt" viewBox="0 0 872.812317 451.560781" xmlns="http://www.w3.org/2000/svg" version="1.1">
 <metadata>
  <rdf:RDF xmlns:dc="http://purl.org/dc/elements/1.1/" xmlns:cc="http://creativecommons.org/ns#" xmlns:rdf="http://www.w3.org/1999/02/22-rdf-syntax-ns#">
   <cc:Work>
    <dc:type rdf:resource="http://purl.org/dc/dcmitype/StillImage"/>
    <dc:date>2026-09-18T14:01:32.554074</dc:date>
    <dc:format>image/svg+xml</dc:format>
    <dc:creator>
     <cc:Agent>
      <dc:title>Matplotlib v3.11.1, https://matplotlib.org/</dc:title>
     </cc:Agent>
    </dc:creator>
   </cc:Work>
  </rdf:RDF>
 </metadata>
 <defs>
  <style type="text/css">*{stroke-linejoin: round; stroke-linecap: butt}</style>
 </defs>
 <g id="figure_1">
  <g id="patch_1">
   <path d="M 0 451.560781 
L 872.812317 451.560781 
L 872.812317 0 
L 0 0 
z
" style="fill: #ffffff"/>
  </g>
  <g id="axes_1">
   <g id="patch_2">
    <path d="M 53.965312 414.36 
L 409.056222 414.36 
L 409.056222 54 
L 53.965312 54 
z
" style="fill: #ffffff"/>
   </g>
   <g id="matplotlib.axis_1">
    <g id="xtick_1">
     <g id="line2d_1">
      <defs>
       <path id="m2001b15229" d="M 0 0 
L 0 3.5 
" style="stroke: #627d98; stroke-width: 0.8"/>
      </defs>
      <g>
       <use xlink:href="#m2001b15229" x="58.974432" y="414.36" style="fill: #627d98; stroke: #627d98; stroke-width: 0.8"/>
      </g>
     </g>
     <g id="text_1">
      <!-- 0 -->
      <g style="fill: #627d98" transform="translate(56.111307 428.197891) scale(0.09 -0.09)">
       <defs>
        <path id="DejaVuSans-13" d="M 2034 4250 
Q 1547 4250 1301 3770 
Q 1056 3291 1056 2328 
Q 1056 1369 1301 889 
Q 1547 409 2034 409 
Q 2525 409 2770 889 
Q 3016 1369 3016 2328 
Q 3016 3291 2770 3770 
Q 2525 4250 2034 4250 
z
M 2034 4750 
Q 2819 4750 3233 4129 
Q 3647 3509 3647 2328 
Q 3647 1150 3233 529 
Q 2819 -91 2034 -91 
Q 1250 -91 836 529 
Q 422 1150 422 2328 
Q 422 3509 836 4129 
Q 1250 4750 2034 4750 
z
" transform="scale(0.015625)"/>
       </defs>
       <use xlink:href="#DejaVuSans-13"/>
      </g>
     </g>
    </g>
    <g id="xtick_2">
     <g id="line2d_2">
      <g>
       <use xlink:href="#m2001b15229" x="114.631314" y="414.36" style="fill: #627d98; stroke: #627d98; stroke-width: 0.8"/>
      </g>
     </g>
     <g id="text_2">
      <!-- 5 -->
      <g style="fill: #627d98" transform="translate(111.768189 428.197891) scale(0.09 -0.09)">
       <defs>
        <path id="DejaVuSans-18" d="M 691 4666 
L 3169 4666 
L 3169 4134 
L 1269 4134 
L 1269 2991 
Q 1406 3038 1543 3061 
Q 1681 3084 1819 3084 
Q 2600 3084 3056 2656 
Q 3513 2228 3513 1497 
Q 3513 744 3044 326 
Q 2575 -91 1722 -91 
Q 1428 -91 1123 -41 
Q 819 9 494 109 
L 494 744 
Q 775 591 1075 516 
Q 1375 441 1709 441 
Q 2250 441 2565 725 
Q 2881 1009 2881 1497 
Q 2881 1984 2565 2268 
Q 2250 2553 1709 2553 
Q 1456 2553 1204 2497 
Q 953 2441 691 2322 
L 691 4666 
z
" transform="scale(0.015625)"/>
       </defs>
       <use xlink:href="#DejaVuSans-18"/>
      </g>
     </g>
    </g>
    <g id="xtick_3">
     <g id="line2d_3">
      <g>
       <use xlink:href="#m2001b15229" x="170.288197" y="414.36" style="fill: #627d98; stroke: #627d98; stroke-width: 0.8"/>
      </g>
     </g>
     <g id="text_3">
      <!-- 10 -->
      <g style="fill: #627d98" transform="translate(164.561947 428.197891) scale(0.09 -0.09)">
       <defs>
        <path id="DejaVuSans-14" d="M 794 531 
L 1825 531 
L 1825 4091 
L 703 3866 
L 703 4441 
L 1819 4666 
L 2450 4666 
L 2450 531 
L 3481 531 
L 3481 0 
L 794 0 
L 794 531 
z
" transform="scale(0.015625)"/>
       </defs>
       <use xlink:href="#DejaVuSans-14"/>
       <use xlink:href="#DejaVuSans-13" transform="translate(63.625 0)"/>
      </g>
     </g>
    </g>
    <g id="xtick_4">
     <g id="line2d_4">
      <g>
       <use xlink:href="#m2001b15229" x="225.945079" y="414.36" style="fill: #627d98; stroke: #627d98; stroke-width: 0.8"/>
      </g>
     </g>
     <g id="text_4">
      <!-- 15 -->
      <g style="fill: #627d98" transform="translate(220.218829 428.197891) scale(0.09 -0.09)">
       <use xlink:href="#DejaVuSans-14"/>
       <use xlink:href="#DejaVuSans-18" transform="translate(63.625 0)"/>
      </g>
     </g>
    </g>
    <g id="xtick_5">
     <g id="line2d_5">
      <g>
       <use xlink:href="#m2001b15229" x="281.601961" y="414.36" style="fill: #627d98; stroke: #627d98; stroke-width: 0.8"/>
      </g>
     </g>
     <g id="text_5">
      <!-- 20 -->
      <g style="fill: #627d98" transform="translate(275.875711 428.197891) scale(0.09 -0.09)">
       <defs>
        <path id="DejaVuSans-15" d="M 1228 531 
L 3431 531 
L 3431 0 
L 469 0 
L 469 531 
Q 828 903 1448 1529 
Q 2069 2156 2228 2338 
Q 2531 2678 2651 2914 
Q 2772 3150 2772 3378 
Q 2772 3750 2511 3984 
Q 2250 4219 1831 4219 
Q 1534 4219 1204 4116 
Q 875 4013 500 3803 
L 500 4441 
Q 881 4594 1212 4672 
Q 1544 4750 1819 4750 
Q 2544 4750 2975 4387 
Q 3406 4025 3406 3419 
Q 3406 3131 3298 2873 
Q 3191 2616 2906 2266 
Q 2828 2175 2409 1742 
Q 1991 1309 1228 531 
z
" transform="scale(0.015625)"/>
       </defs>
       <use xlink:href="#DejaVuSans-15"/>
       <use xlink:href="#DejaVuSans-13" transform="translate(63.625 0)"/>
      </g>
     </g>
    </g>
    <g id="xtick_6">
     <g id="line2d_6">
      <g>
       <use xlink:href="#m2001b15229" x="337.258843" y="414.36" style="fill: #627d98; stroke: #627d98; stroke-width: 0.8"/>
      </g>
     </g>
     <g id="text_6">
      <!-- 25 -->
      <g style="fill: #627d98" transform="translate(331.532593 428.197891) scale(0.09 -0.09)">
       <use xlink:href="#DejaVuSans-15"/>
       <use xlink:href="#DejaVuSans-18" transform="translate(63.625 0)"/>
      </g>
     </g>
    </g>
    <g id="xtick_7">
     <g id="line2d_7">
      <g>
       <use xlink:href="#m2001b15229" x="392.915726" y="414.36" style="fill: #627d98; stroke: #627d98; stroke-width: 0.8"/>
      </g>
     </g>
     <g id="text_7">
      <!-- 30 -->
      <g style="fill: #627d98" transform="translate(387.189476 428.197891) scale(0.09 -0.09)">
       <defs>
        <path id="DejaVuSans-16" d="M 2597 2516 
Q 3050 2419 3304 2112 
Q 3559 1806 3559 1356 
Q 3559 666 3084 287 
Q 2609 -91 1734 -91 
Q 1441 -91 1130 -33 
Q 819 25 488 141 
L 488 750 
Q 750 597 1062 519 
Q 1375 441 1716 441 
Q 2309 441 2620 675 
Q 2931 909 2931 1356 
Q 2931 1769 2642 2001 
Q 2353 2234 1838 2234 
L 1294 2234 
L 1294 2753 
L 1863 2753 
Q 2328 2753 2575 2939 
Q 2822 3125 2822 3475 
Q 2822 3834 2567 4026 
Q 2313 4219 1838 4219 
Q 1578 4219 1281 4162 
Q 984 4106 628 3988 
L 628 4550 
Q 988 4650 1302 4700 
Q 1616 4750 1894 4750 
Q 2613 4750 3031 4423 
Q 3450 4097 3450 3541 
Q 3450 3153 3228 2886 
Q 3006 2619 2597 2516 
z
" transform="scale(0.015625)"/>
       </defs>
       <use xlink:href="#DejaVuSans-16"/>
       <use xlink:href="#DejaVuSans-13" transform="translate(63.625 0)"/>
      </g>
     </g>
    </g>
    <g id="text_8">
     <!-- Epoch -->
     <g transform="translate(216.19983 441.958437) scale(0.1 -0.1)">
      <defs>
       <path id="DejaVuSans-28" d="M 628 4666 
L 3578 4666 
L 3578 4134 
L 1259 4134 
L 1259 2753 
L 3481 2753 
L 3481 2222 
L 1259 2222 
L 1259 531 
L 3634 531 
L 3634 0 
L 628 0 
L 628 4666 
z
" transform="scale(0.015625)"/>
       <path id="DejaVuSans-53" d="M 1159 525 
L 1159 -1331 
L 581 -1331 
L 581 3500 
L 1159 3500 
L 1159 2969 
Q 1341 3281 1617 3432 
Q 1894 3584 2278 3584 
Q 2916 3584 3314 3078 
Q 3713 2572 3713 1747 
Q 3713 922 3314 415 
Q 2916 -91 2278 -91 
Q 1894 -91 1617 61 
Q 1341 213 1159 525 
z
M 3116 1747 
Q 3116 2381 2855 2742 
Q 2594 3103 2138 3103 
Q 1681 3103 1420 2742 
Q 1159 2381 1159 1747 
Q 1159 1113 1420 752 
Q 1681 391 2138 391 
Q 2594 391 2855 752 
Q 3116 1113 3116 1747 
z
" transform="scale(0.015625)"/>
       <path id="DejaVuSans-52" d="M 1959 3097 
Q 1497 3097 1228 2736 
Q 959 2375 959 1747 
Q 959 1119 1226 758 
Q 1494 397 1959 397 
Q 2419 397 2687 759 
Q 2956 1122 2956 1747 
Q 2956 2369 2687 2733 
Q 2419 3097 1959 3097 
z
M 1959 3584 
Q 2709 3584 3137 3096 
Q 3566 2609 3566 1747 
Q 3566 888 3137 398 
Q 2709 -91 1959 -91 
Q 1206 -91 779 398 
Q 353 888 353 1747 
Q 353 2609 779 3096 
Q 1206 3584 1959 3584 
z
" transform="scale(0.015625)"/>
       <path id="DejaVuSans-46" d="M 3122 3366 
L 3122 2828 
Q 2878 2963 2633 3030 
Q 2388 3097 2138 3097 
Q 1578 3097 1268 2742 
Q 959 2388 959 1747 
Q 959 1106 1268 751 
Q 1578 397 2138 397 
Q 2388 397 2633 464 
Q 2878 531 3122 666 
L 3122 134 
Q 2881 22 2623 -34 
Q 2366 -91 2075 -91 
Q 1284 -91 818 406 
Q 353 903 353 1747 
Q 353 2603 823 3093 
Q 1294 3584 2113 3584 
Q 2378 3584 2631 3529 
Q 2884 3475 3122 3366 
z
" transform="scale(0.015625)"/>
       <path id="DejaVuSans-4b" d="M 3513 2113 
L 3513 0 
L 2938 0 
L 2938 2094 
Q 2938 2591 2744 2837 
Q 2550 3084 2163 3084 
Q 1697 3084 1428 2787 
Q 1159 2491 1159 1978 
L 1159 0 
L 581 0 
L 581 4863 
L 1159 4863 
L 1159 2956 
Q 1366 3272 1645 3428 
Q 1925 3584 2291 3584 
Q 2894 3584 3203 3211 
Q 3513 2838 3513 2113 
z
" transform="scale(0.015625)"/>
      </defs>
      <use xlink:href="#DejaVuSans-28"/>
      <use xlink:href="#DejaVuSans-53" transform="translate(63.1875 0)"/>
      <use xlink:href="#DejaVuSans-52" transform="translate(126.671875 0)"/>
      <use xlink:href="#DejaVuSans-46" transform="translate(187.859375 0)"/>
      <use xlink:href="#DejaVuSans-4b" transform="translate(242.84375 0)"/>
     </g>
    </g>
   </g>
   <g id="matplotlib.axis_2">
    <g id="ytick_1">
     <g id="line2d_8">
      <path d="M 53.965312 368.893518 
L 409.056222 368.893518 
" clip-path="url(#p3955c2bb58)" style="fill: none; stroke: #d9e2ec; stroke-opacity: 0.8; stroke-width: 0.7; stroke-linecap: square"/>
     </g>
     <g id="line2d_9">
      <defs>
       <path id="mafbf9c6cfe" d="M 0 0 
L -3.5 0 
" style="stroke: #627d98; stroke-width: 0.8"/>
      </defs>
      <g>
       <use xlink:href="#mafbf9c6cfe" x="53.965312" y="368.893518" style="fill: #627d98; stroke: #627d98; stroke-width: 0.8"/>
      </g>
     </g>
     <g id="text_9">
      <!-- 0.050 -->
      <g style="fill: #627d98" transform="translate(21.2 372.312464) scale(0.09 -0.09)">
       <defs>
        <path id="DejaVuSans-11" d="M 684 794 
L 1344 794 
L 1344 0 
L 684 0 
L 684 794 
z
" transform="scale(0.015625)"/>
       </defs>
       <use xlink:href="#DejaVuSans-13"/>
       <use xlink:href="#DejaVuSans-11" transform="translate(63.625 0)"/>
       <use xlink:href="#DejaVuSans-13" transform="translate(95.40625 0)"/>
       <use xlink:href="#DejaVuSans-18" transform="translate(159.03125 0)"/>
       <use xlink:href="#DejaVuSans-13" transform="translate(222.65625 0)"/>
      </g>
     </g>
    </g>
    <g id="ytick_2">
     <g id="line2d_10">
      <path d="M 53.965312 319.037419 
L 409.056222 319.037419 
" clip-path="url(#p3955c2bb58)" style="fill: none; stroke: #d9e2ec; stroke-opacity: 0.8; stroke-width: 0.7; stroke-linecap: square"/>
     </g>
     <g id="line2d_11">
      <g>
       <use xlink:href="#mafbf9c6cfe" x="53.965312" y="319.037419" style="fill: #627d98; stroke: #627d98; stroke-width: 0.8"/>
      </g>
     </g>
     <g id="text_10">
      <!-- 0.075 -->
      <g style="fill: #627d98" transform="translate(21.2 322.456364) scale(0.09 -0.09)">
       <defs>
        <path id="DejaVuSans-1a" d="M 525 4666 
L 3525 4666 
L 3525 4397 
L 1831 0 
L 1172 0 
L 2766 4134 
L 525 4134 
L 525 4666 
z
" transform="scale(0.015625)"/>
       </defs>
       <use xlink:href="#DejaVuSans-13"/>
       <use xlink:href="#DejaVuSans-11" transform="translate(63.625 0)"/>
       <use xlink:href="#DejaVuSans-13" transform="translate(95.40625 0)"/>
       <use xlink:href="#DejaVuSans-1a" transform="translate(159.03125 0)"/>
       <use xlink:href="#DejaVuSans-18" transform="translate(222.65625 0)"/>
      </g>
     </g>
    </g>
    <g id="ytick_3">
     <g id="line2d_12">
      <path d="M 53.965312 269.181319 
L 409.056222 269.181319 
" clip-path="url(#p3955c2bb58)" style="fill: none; stroke: #d9e2ec; stroke-opacity: 0.8; stroke-width: 0.7; stroke-linecap: square"/>
     </g>
     <g id="line2d_13">
      <g>
       <use xlink:href="#mafbf9c6cfe" x="53.965312" y="269.181319" style="fill: #627d98; stroke: #627d98; stroke-width: 0.8"/>
      </g>
     </g>
     <g id="text_11">
      <!-- 0.100 -->
      <g style="fill: #627d98" transform="translate(21.2 272.600265) scale(0.09 -0.09)">
       <use xlink:href="#DejaVuSans-13"/>
       <use xlink:href="#DejaVuSans-11" transform="translate(63.625 0)"/>
       <use xlink:href="#DejaVuSans-14" transform="translate(95.40625 0)"/>
       <use xlink:href="#DejaVuSans-13" transform="translate(159.03125 0)"/>
       <use xlink:href="#DejaVuSans-13" transform="translate(222.65625 0)"/>
      </g>
     </g>
    </g>
    <g id="ytick_4">
     <g id="line2d_14">
      <path d="M 53.965312 219.32522 
L 409.056222 219.32522 
" clip-path="url(#p3955c2bb58)" style="fill: none; stroke: #d9e2ec; stroke-opacity: 0.8; stroke-width: 0.7; stroke-linecap: square"/>
     </g>
     <g id="line2d_15">
      <g>
       <use xlink:href="#mafbf9c6cfe" x="53.965312" y="219.32522" style="fill: #627d98; stroke: #627d98; stroke-width: 0.8"/>
      </g>
     </g>
     <g id="text_12">
      <!-- 0.125 -->
      <g style="fill: #627d98" transform="translate(21.2 222.744165) scale(0.09 -0.09)">
       <use xlink:href="#DejaVuSans-13"/>
       <use xlink:href="#DejaVuSans-11" transform="translate(63.625 0)"/>
       <use xlink:href="#DejaVuSans-14" transform="translate(95.40625 0)"/>
       <use xlink:href="#DejaVuSans-15" transform="translate(159.03125 0)"/>
       <use xlink:href="#DejaVuSans-18" transform="translate(222.65625 0)"/>
      </g>
     </g>
    </g>
    <g id="ytick_5">
     <g id="line2d_16">
      <path d="M 53.965312 169.469121 
L 409.056222 169.469121 
" clip-path="url(#p3955c2bb58)" style="fill: none; stroke: #d9e2ec; stroke-opacity: 0.8; stroke-width: 0.7; stroke-linecap: square"/>
     </g>
     <g id="line2d_17">
      <g>
       <use xlink:href="#mafbf9c6cfe" x="53.965312" y="169.469121" style="fill: #627d98; stroke: #627d98; stroke-width: 0.8"/>
      </g>
     </g>
     <g id="text_13">
      <!-- 0.150 -->
      <g style="fill: #627d98" transform="translate(21.2 172.888066) scale(0.09 -0.09)">
       <use xlink:href="#DejaVuSans-13"/>
       <use xlink:href="#DejaVuSans-11" transform="translate(63.625 0)"/>
       <use xlink:href="#DejaVuSans-14" transform="translate(95.40625 0)"/>
       <use xlink:href="#DejaVuSans-18" transform="translate(159.03125 0)"/>
       <use xlink:href="#DejaVuSans-13" transform="translate(222.65625 0)"/>
      </g>
     </g>
    </g>
    <g id="ytick_6">
     <g id="line2d_18">
      <path d="M 53.965312 119.613021 
L 409.056222 119.613021 
" clip-path="url(#p3955c2bb58)" style="fill: none; stroke: #d9e2ec; stroke-opacity: 0.8; stroke-width: 0.7; stroke-linecap: square"/>
     </g>
     <g id="line2d_19">
      <g>
       <use xlink:href="#mafbf9c6cfe" x="53.965312" y="119.613021" style="fill: #627d98; stroke: #627d98; stroke-width: 0.8"/>
      </g>
     </g>
     <g id="text_14">
      <!-- 0.175 -->
      <g style="fill: #627d98" transform="translate(21.2 123.031967) scale(0.09 -0.09)">
       <use xlink:href="#DejaVuSans-13"/>
       <use xlink:href="#DejaVuSans-11" transform="translate(63.625 0)"/>
       <use xlink:href="#DejaVuSans-14" transform="translate(95.40625 0)"/>
       <use xlink:href="#DejaVuSans-1a" transform="translate(159.03125 0)"/>
       <use xlink:href="#DejaVuSans-18" transform="translate(222.65625 0)"/>
      </g>
     </g>
    </g>
    <g id="ytick_7">
     <g id="line2d_20">
      <path d="M 53.965312 69.756922 
L 409.056222 69.756922 
" clip-path="url(#p3955c2bb58)" style="fill: none; stroke: #d9e2ec; stroke-opacity: 0.8; stroke-width: 0.7; stroke-linecap: square"/>
     </g>
     <g id="line2d_21">
      <g>
       <use xlink:href="#mafbf9c6cfe" x="53.965312" y="69.756922" style="fill: #627d98; stroke: #627d98; stroke-width: 0.8"/>
      </g>
     </g>
     <g id="text_15">
      <!-- 0.200 -->
      <g style="fill: #627d98" transform="translate(21.2 73.175867) scale(0.09 -0.09)">
       <use xlink:href="#DejaVuSans-13"/>
       <use xlink:href="#DejaVuSans-11" transform="translate(63.625 0)"/>
       <use xlink:href="#DejaVuSans-15" transform="translate(95.40625 0)"/>
       <use xlink:href="#DejaVuSans-13" transform="translate(159.03125 0)"/>
       <use xlink:href="#DejaVuSans-13" transform="translate(222.65625 0)"/>
      </g>
     </g>
    </g>
    <g id="text_16">
     <!-- Loss -->
     <g transform="translate(14.797656 245.147187) rotate(-90) scale(0.1 -0.1)">
      <defs>
       <path id="DejaVuSans-2f" d="M 628 4666 
L 1259 4666 
L 1259 531 
L 3531 531 
L 3531 0 
L 628 0 
L 628 4666 
z
" transform="scale(0.015625)"/>
       <path id="DejaVuSans-56" d="M 2834 3397 
L 2834 2853 
Q 2591 2978 2328 3040 
Q 2066 3103 1784 3103 
Q 1356 3103 1142 2972 
Q 928 2841 928 2578 
Q 928 2378 1081 2264 
Q 1234 2150 1697 2047 
L 1894 2003 
Q 2506 1872 2764 1633 
Q 3022 1394 3022 966 
Q 3022 478 2636 193 
Q 2250 -91 1575 -91 
Q 1294 -91 989 -36 
Q 684 19 347 128 
L 347 722 
Q 666 556 975 473 
Q 1284 391 1588 391 
Q 1994 391 2212 530 
Q 2431 669 2431 922 
Q 2431 1156 2273 1281 
Q 2116 1406 1581 1522 
L 1381 1569 
Q 847 1681 609 1914 
Q 372 2147 372 2553 
Q 372 3047 722 3315 
Q 1072 3584 1716 3584 
Q 2034 3584 2315 3537 
Q 2597 3491 2834 3397 
z
" transform="scale(0.015625)"/>
      </defs>
      <use xlink:href="#DejaVuSans-2f"/>
      <use xlink:href="#DejaVuSans-52" transform="translate(53.96875 0)"/>
      <use xlink:href="#DejaVuSans-56" transform="translate(115.15625 0)"/>
      <use xlink:href="#DejaVuSans-56" transform="translate(167.25 0)"/>
     </g>
    </g>
   </g>
   <g id="line2d_22">
    <path d="M 70.105808 70.38 
L 81.237185 144.628959 
L 92.368561 185.107507 
L 103.499938 216.042025 
L 114.631314 241.864048 
L 125.762691 264.825097 
L 136.894067 285.634923 
L 148.025444 302.75131 
L 159.15682 317.595112 
L 170.288197 330.24937 
L 181.419573 341.197209 
L 192.550949 350.007163 
L 203.682326 358.264889 
L 214.813702 364.394027 
L 225.945079 369.252112 
L 237.076455 374.130616 
L 248.207832 378.834281 
L 259.339208 381.928916 
L 270.470585 384.341075 
L 281.601961 385.962176 
L 292.733338 386.506521 
L 303.864714 389.789993 
L 314.99609 390.766499 
L 326.127467 392.5833 
L 337.258843 393.788888 
L 348.39022 394.647184 
L 359.521596 396.121667 
L 370.652973 396.25786 
L 381.784349 396.497619 
L 392.915726 397.161033 
" clip-path="url(#p3955c2bb58)" style="fill: none; stroke: #1d6fa5; stroke-width: 2.2; stroke-linecap: square"/>
   </g>
   <g id="line2d_23">
    <path d="M 70.105808 77.447678 
L 81.237185 88.757193 
L 92.368561 123.002408 
L 103.499938 172.15499 
L 114.631314 216.002018 
L 125.762691 249.8507 
L 136.894067 282.582169 
L 148.025444 301.687112 
L 159.15682 321.359831 
L 170.288197 333.818475 
L 181.419573 341.546938 
L 192.550949 353.525555 
L 203.682326 358.622902 
L 214.813702 364.851303 
L 225.945079 369.283824 
L 237.076455 376.375295 
L 248.207832 376.272607 
L 259.339208 381.410908 
L 270.470585 382.9862 
L 281.601961 386.973874 
L 292.733338 387.56112 
L 303.864714 389.568641 
L 314.99609 389.627997 
L 326.127467 391.533616 
L 337.258843 391.912346 
L 348.39022 393.912567 
L 359.521596 395.948314 
L 370.652973 394.280344 
L 381.784349 395.7716 
L 392.915726 397.98 
" clip-path="url(#p3955c2bb58)" style="fill: none; stroke: #1d6fa5; stroke-width: 2.2; stroke-linecap: square"/>
   </g>
   <g id="patch_3">
    <path d="M 53.965312 414.36 
L 53.965312 54 
" style="fill: none; stroke: #d9e2ec; stroke-width: 0.8; stroke-linejoin: miter; stroke-linecap: square"/>
   </g>
   <g id="patch_4">
    <path d="M 409.056222 414.36 
L 409.056222 54 
" style="fill: none; stroke: #d9e2ec; stroke-width: 0.8; stroke-linejoin: miter; stroke-linecap: square"/>
   </g>
   <g id="patch_5">
    <path d="M 53.965312 414.36 
L 409.056222 414.36 
" style="fill: none; stroke: #d9e2ec; stroke-width: 0.8; stroke-linejoin: miter; stroke-linecap: square"/>
   </g>
   <g id="patch_6">
    <path d="M 53.965312 54 
L 409.056222 54 
" style="fill: none; stroke: #d9e2ec; stroke-width: 0.8; stroke-linejoin: miter; stroke-linecap: square"/>
   </g>
   <g id="text_17">
    <!-- Phase 2: MRI-to-CT synthesis -->
    <g style="fill: #102a43" transform="translate(141.082173 48) scale(0.11 -0.11)">
     <defs>
      <path id="DejaVuSans-Bold-33" d="M 588 4666 
L 2584 4666 
Q 3475 4666 3951 4270 
Q 4428 3875 4428 3144 
Q 4428 2409 3951 2014 
Q 3475 1619 2584 1619 
L 1791 1619 
L 1791 0 
L 588 0 
L 588 4666 
z
M 1791 3794 
L 1791 2491 
L 2456 2491 
Q 2806 2491 2997 2661 
Q 3188 2831 3188 3144 
Q 3188 3456 2997 3625 
Q 2806 3794 2456 3794 
L 1791 3794 
z
" transform="scale(0.015625)"/>
      <path id="DejaVuSans-Bold-4b" d="M 4056 2131 
L 4056 0 
L 2931 0 
L 2931 347 
L 2931 1625 
Q 2931 2084 2911 2256 
Q 2891 2428 2841 2509 
Q 2775 2619 2662 2680 
Q 2550 2741 2406 2741 
Q 2056 2741 1856 2470 
Q 1656 2200 1656 1722 
L 1656 0 
L 538 0 
L 538 4863 
L 1656 4863 
L 1656 2988 
Q 1909 3294 2193 3439 
Q 2478 3584 2822 3584 
Q 3428 3584 3742 3212 
Q 4056 2841 4056 2131 
z
" transform="scale(0.015625)"/>
      <path id="DejaVuSans-Bold-44" d="M 2106 1575 
Q 1756 1575 1579 1456 
Q 1403 1338 1403 1106 
Q 1403 894 1545 773 
Q 1688 653 1941 653 
Q 2256 653 2472 879 
Q 2688 1106 2688 1447 
L 2688 1575 
L 2106 1575 
z
M 3816 1997 
L 3816 0 
L 2688 0 
L 2688 519 
Q 2463 200 2181 54 
Q 1900 -91 1497 -91 
Q 953 -91 614 226 
Q 275 544 275 1050 
Q 275 1666 698 1953 
Q 1122 2241 2028 2241 
L 2688 2241 
L 2688 2328 
Q 2688 2594 2478 2717 
Q 2269 2841 1825 2841 
Q 1466 2841 1156 2769 
Q 847 2697 581 2553 
L 581 3406 
Q 941 3494 1303 3539 
Q 1666 3584 2028 3584 
Q 2975 3584 3395 3211 
Q 3816 2838 3816 1997 
z
" transform="scale(0.015625)"/>
      <path id="DejaVuSans-Bold-56" d="M 3272 3391 
L 3272 2541 
Q 2913 2691 2578 2766 
Q 2244 2841 1947 2841 
Q 1628 2841 1473 2761 
Q 1319 2681 1319 2516 
Q 1319 2381 1436 2309 
Q 1553 2238 1856 2203 
L 2053 2175 
Q 2913 2066 3209 1816 
Q 3506 1566 3506 1031 
Q 3506 472 3093 190 
Q 2681 -91 1863 -91 
Q 1516 -91 1145 -36 
Q 775 19 384 128 
L 384 978 
Q 719 816 1070 734 
Q 1422 653 1784 653 
Q 2113 653 2278 743 
Q 2444 834 2444 1013 
Q 2444 1163 2330 1236 
Q 2216 1309 1875 1350 
L 1678 1375 
Q 931 1469 631 1722 
Q 331 1975 331 2491 
Q 331 3047 712 3315 
Q 1094 3584 1881 3584 
Q 2191 3584 2531 3537 
Q 2872 3491 3272 3391 
z
" transform="scale(0.015625)"/>
      <path id="DejaVuSans-Bold-48" d="M 4031 1759 
L 4031 1441 
L 1416 1441 
Q 1456 1047 1700 850 
Q 1944 653 2381 653 
Q 2734 653 3104 758 
Q 3475 863 3866 1075 
L 3866 213 
Q 3469 63 3072 -14 
Q 2675 -91 2278 -91 
Q 1328 -91 801 392 
Q 275 875 275 1747 
Q 275 2603 792 3093 
Q 1309 3584 2216 3584 
Q 3041 3584 3536 3087 
Q 4031 2591 4031 1759 
z
M 2881 2131 
Q 2881 2450 2695 2645 
Q 2509 2841 2209 2841 
Q 1884 2841 1681 2658 
Q 1478 2475 1428 2131 
L 2881 2131 
z
" transform="scale(0.015625)"/>
      <path id="DejaVuSans-Bold-3" transform="scale(0.015625)"/>
      <path id="DejaVuSans-Bold-15" d="M 1844 884 
L 3897 884 
L 3897 0 
L 506 0 
L 506 884 
L 2209 2388 
Q 2438 2594 2547 2791 
Q 2656 2988 2656 3200 
Q 2656 3528 2436 3728 
Q 2216 3928 1850 3928 
Q 1569 3928 1234 3808 
Q 900 3688 519 3450 
L 519 4475 
Q 925 4609 1322 4679 
Q 1719 4750 2100 4750 
Q 2938 4750 3402 4381 
Q 3866 4013 3866 3353 
Q 3866 2972 3669 2642 
Q 3472 2313 2841 1759 
L 1844 884 
z
" transform="scale(0.015625)"/>
      <path id="DejaVuSans-Bold-1d" d="M 716 3500 
L 1844 3500 
L 1844 2291 
L 716 2291 
L 716 3500 
z
M 716 1209 
L 1844 1209 
L 1844 0 
L 716 0 
L 716 1209 
z
" transform="scale(0.015625)"/>
      <path id="DejaVuSans-Bold-30" d="M 588 4666 
L 2119 4666 
L 3181 2169 
L 4250 4666 
L 5778 4666 
L 5778 0 
L 4641 0 
L 4641 3413 
L 3566 897 
L 2803 897 
L 1728 3413 
L 1728 0 
L 588 0 
L 588 4666 
z
" transform="scale(0.015625)"/>
      <path id="DejaVuSans-Bold-35" d="M 2297 2597 
Q 2675 2597 2839 2737 
Q 3003 2878 3003 3200 
Q 3003 3519 2839 3656 
Q 2675 3794 2297 3794 
L 1791 3794 
L 1791 2597 
L 2297 2597 
z
M 1791 1766 
L 1791 0 
L 588 0 
L 588 4666 
L 2425 4666 
Q 3347 4666 3776 4356 
Q 4206 4047 4206 3378 
Q 4206 2916 3982 2619 
Q 3759 2322 3309 2181 
Q 3556 2125 3751 1926 
Q 3947 1728 4147 1325 
L 4800 0 
L 3519 0 
L 2950 1159 
Q 2778 1509 2601 1637 
Q 2425 1766 2131 1766 
L 1791 1766 
z
" transform="scale(0.015625)"/>
      <path id="DejaVuSans-Bold-2c" d="M 588 4666 
L 1791 4666 
L 1791 0 
L 588 0 
L 588 4666 
z
" transform="scale(0.015625)"/>
      <path id="DejaVuSans-Bold-10" d="M 347 2297 
L 2309 2297 
L 2309 1388 
L 347 1388 
L 347 2297 
z
" transform="scale(0.015625)"/>
      <path id="DejaVuSans-Bold-57" d="M 1759 4494 
L 1759 3500 
L 2913 3500 
L 2913 2700 
L 1759 2700 
L 1759 1216 
Q 1759 972 1856 886 
Q 1953 800 2241 800 
L 2816 800 
L 2816 0 
L 1856 0 
Q 1194 0 917 276 
Q 641 553 641 1216 
L 641 2700 
L 84 2700 
L 84 3500 
L 641 3500 
L 641 4494 
L 1759 4494 
z
" transform="scale(0.015625)"/>
      <path id="DejaVuSans-Bold-52" d="M 2203 2784 
Q 1831 2784 1636 2517 
Q 1441 2250 1441 1747 
Q 1441 1244 1636 976 
Q 1831 709 2203 709 
Q 2569 709 2762 976 
Q 2956 1244 2956 1747 
Q 2956 2250 2762 2517 
Q 2569 2784 2203 2784 
z
M 2203 3584 
Q 3106 3584 3614 3096 
Q 4122 2609 4122 1747 
Q 4122 884 3614 396 
Q 3106 -91 2203 -91 
Q 1297 -91 786 396 
Q 275 884 275 1747 
Q 275 2609 786 3096 
Q 1297 3584 2203 3584 
z
" transform="scale(0.015625)"/>
      <path id="DejaVuSans-Bold-26" d="M 4288 256 
Q 3956 84 3597 -3 
Q 3238 -91 2847 -91 
Q 1681 -91 1000 561 
Q 319 1213 319 2328 
Q 319 3447 1000 4098 
Q 1681 4750 2847 4750 
Q 3238 4750 3597 4662 
Q 3956 4575 4288 4403 
L 4288 3438 
Q 3953 3666 3628 3772 
Q 3303 3878 2944 3878 
Q 2300 3878 1931 3465 
Q 1563 3053 1563 2328 
Q 1563 1606 1931 1193 
Q 2300 781 2944 781 
Q 3303 781 3628 887 
Q 3953 994 4288 1222 
L 4288 256 
z
" transform="scale(0.015625)"/>
      <path id="DejaVuSans-Bold-37" d="M 31 4666 
L 4331 4666 
L 4331 3756 
L 2784 3756 
L 2784 0 
L 1581 0 
L 1581 3756 
L 31 3756 
L 31 4666 
z
" transform="scale(0.015625)"/>
      <path id="DejaVuSans-Bold-5c" d="M 78 3500 
L 1197 3500 
L 2138 1125 
L 2938 3500 
L 4056 3500 
L 2584 -331 
Q 2363 -916 2067 -1148 
Q 1772 -1381 1288 -1381 
L 641 -1381 
L 641 -647 
L 991 -647 
Q 1275 -647 1404 -556 
Q 1534 -466 1606 -231 
L 1638 -134 
L 78 3500 
z
" transform="scale(0.015625)"/>
      <path id="DejaVuSans-Bold-51" d="M 4056 2131 
L 4056 0 
L 2931 0 
L 2931 347 
L 2931 1631 
Q 2931 2084 2911 2256 
Q 2891 2428 2841 2509 
Q 2775 2619 2662 2680 
Q 2550 2741 2406 2741 
Q 2056 2741 1856 2470 
Q 1656 2200 1656 1722 
L 1656 0 
L 538 0 
L 538 3500 
L 1656 3500 
L 1656 2988 
Q 1909 3294 2193 3439 
Q 2478 3584 2822 3584 
Q 3428 3584 3742 3212 
Q 4056 2841 4056 2131 
z
" transform="scale(0.015625)"/>
      <path id="DejaVuSans-Bold-4c" d="M 538 3500 
L 1656 3500 
L 1656 0 
L 538 0 
L 538 3500 
z
M 538 4863 
L 1656 4863 
L 1656 3950 
L 538 3950 
L 538 4863 
z
" transform="scale(0.015625)"/>
     </defs>
     <use xlink:href="#DejaVuSans-Bold-33"/>
     <use xlink:href="#DejaVuSans-Bold-4b" transform="translate(73.296875 0)"/>
     <use xlink:href="#DejaVuSans-Bold-44" transform="translate(144.484375 0)"/>
     <use xlink:href="#DejaVuSans-Bold-56" transform="translate(211.96875 0)"/>
     <use xlink:href="#DejaVuSans-Bold-48" transform="translate(271.484375 0)"/>
     <use xlink:href="#DejaVuSans-Bold-3" transform="translate(339.3125 0)"/>
     <use xlink:href="#DejaVuSans-Bold-15" transform="translate(374.125 0)"/>
     <use xlink:href="#DejaVuSans-Bold-1d" transform="translate(443.703125 0)"/>
     <use xlink:href="#DejaVuSans-Bold-3" transform="translate(483.6875 0)"/>
     <use xlink:href="#DejaVuSans-Bold-30" transform="translate(518.5 0)"/>
     <use xlink:href="#DejaVuSans-Bold-35" transform="translate(618.015625 0)"/>
     <use xlink:href="#DejaVuSans-Bold-2c" transform="translate(695.015625 0)"/>
     <use xlink:href="#DejaVuSans-Bold-10" transform="translate(732.21875 0)"/>
     <use xlink:href="#DejaVuSans-Bold-57" transform="translate(773.71875 0)"/>
     <use xlink:href="#DejaVuSans-Bold-52" transform="translate(821.515625 0)"/>
     <use xlink:href="#DejaVuSans-Bold-10" transform="translate(890.21875 0)"/>
     <use xlink:href="#DejaVuSans-Bold-26" transform="translate(931.71875 0)"/>
     <use xlink:href="#DejaVuSans-Bold-37" transform="translate(1005.109375 0)"/>
     <use xlink:href="#DejaVuSans-Bold-3" transform="translate(1073.328125 0)"/>
     <use xlink:href="#DejaVuSans-Bold-56" transform="translate(1108.140625 0)"/>
     <use xlink:href="#DejaVuSans-Bold-5c" transform="translate(1167.65625 0)"/>
     <use xlink:href="#DejaVuSans-Bold-51" transform="translate(1232.84375 0)"/>
     <use xlink:href="#DejaVuSans-Bold-57" transform="translate(1304.03125 0)"/>
     <use xlink:href="#DejaVuSans-Bold-4b" transform="translate(1351.828125 0)"/>
     <use xlink:href="#DejaVuSans-Bold-48" transform="translate(1423.015625 0)"/>
     <use xlink:href="#DejaVuSans-Bold-56" transform="translate(1490.84375 0)"/>
     <use xlink:href="#DejaVuSans-Bold-4c" transform="translate(1550.359375 0)"/>
     <use xlink:href="#DejaVuSans-Bold-56" transform="translate(1584.640625 0)"/>
    </g>
   </g>
   <g id="legend_1">
    <g id="line2d_24">
     <path d="M 311.070128 65.788594 
L 320.070128 65.788594 
L 329.070128 65.788594 
" style="fill: none; stroke: #1d6fa5; stroke-width: 2.2; stroke-linecap: square"/>
    </g>
    <g id="text_18">
     <!-- Train loss -->
     <g transform="translate(336.270128 68.938594) scale(0.09 -0.09)">
      <defs>
       <path id="DejaVuSans-37" d="M -19 4666 
L 3928 4666 
L 3928 4134 
L 2272 4134 
L 2272 0 
L 1638 0 
L 1638 4134 
L -19 4134 
L -19 4666 
z
" transform="scale(0.015625)"/>
       <path id="DejaVuSans-55" d="M 2631 2963 
Q 2534 3019 2420 3045 
Q 2306 3072 2169 3072 
Q 1681 3072 1420 2755 
Q 1159 2438 1159 1844 
L 1159 0 
L 581 0 
L 581 3500 
L 1159 3500 
L 1159 2956 
Q 1341 3275 1631 3429 
Q 1922 3584 2338 3584 
Q 2397 3584 2469 3576 
Q 2541 3569 2628 3553 
L 2631 2963 
z
" transform="scale(0.015625)"/>
       <path id="DejaVuSans-44" d="M 2194 1759 
Q 1497 1759 1228 1600 
Q 959 1441 959 1056 
Q 959 750 1161 570 
Q 1363 391 1709 391 
Q 2188 391 2477 730 
Q 2766 1069 2766 1631 
L 2766 1759 
L 2194 1759 
z
M 3341 1997 
L 3341 0 
L 2766 0 
L 2766 531 
Q 2569 213 2275 61 
Q 1981 -91 1556 -91 
Q 1019 -91 701 211 
Q 384 513 384 1019 
Q 384 1609 779 1909 
Q 1175 2209 1959 2209 
L 2766 2209 
L 2766 2266 
Q 2766 2663 2505 2880 
Q 2244 3097 1772 3097 
Q 1472 3097 1187 3025 
Q 903 2953 641 2809 
L 641 3341 
Q 956 3463 1253 3523 
Q 1550 3584 1831 3584 
Q 2591 3584 2966 3190 
Q 3341 2797 3341 1997 
z
" transform="scale(0.015625)"/>
       <path id="DejaVuSans-4c" d="M 603 3500 
L 1178 3500 
L 1178 0 
L 603 0 
L 603 3500 
z
M 603 4863 
L 1178 4863 
L 1178 4134 
L 603 4134 
L 603 4863 
z
" transform="scale(0.015625)"/>
       <path id="DejaVuSans-51" d="M 3513 2113 
L 3513 0 
L 2938 0 
L 2938 2094 
Q 2938 2591 2744 2837 
Q 2550 3084 2163 3084 
Q 1697 3084 1428 2787 
Q 1159 2491 1159 1978 
L 1159 0 
L 581 0 
L 581 3500 
L 1159 3500 
L 1159 2956 
Q 1366 3272 1645 3428 
Q 1925 3584 2291 3584 
Q 2894 3584 3203 3211 
Q 3513 2838 3513 2113 
z
" transform="scale(0.015625)"/>
       <path id="DejaVuSans-3" transform="scale(0.015625)"/>
       <path id="DejaVuSans-4f" d="M 603 4863 
L 1178 4863 
L 1178 0 
L 603 0 
L 603 4863 
z
" transform="scale(0.015625)"/>
      </defs>
      <use xlink:href="#DejaVuSans-37"/>
      <use xlink:href="#DejaVuSans-55" transform="translate(46.375 0)"/>
      <use xlink:href="#DejaVuSans-44" transform="translate(87.484375 0)"/>
      <use xlink:href="#DejaVuSans-4c" transform="translate(148.765625 0)"/>
      <use xlink:href="#DejaVuSans-51" transform="translate(176.546875 0)"/>
      <use xlink:href="#DejaVuSans-3" transform="translate(239.921875 0)"/>
      <use xlink:href="#DejaVuSans-4f" transform="translate(271.703125 0)"/>
      <use xlink:href="#DejaVuSans-52" transform="translate(299.484375 0)"/>
      <use xlink:href="#DejaVuSans-56" transform="translate(360.671875 0)"/>
      <use xlink:href="#DejaVuSans-56" transform="translate(412.765625 0)"/>
     </g>
    </g>
    <g id="line2d_25">
     <path d="M 311.070128 79.289297 
L 320.070128 79.289297 
L 329.070128 79.289297 
" style="fill: none; stroke: #1d6fa5; stroke-width: 2.2; stroke-linecap: square"/>
    </g>
    <g id="text_19">
     <!-- Validation loss -->
     <g transform="translate(336.270128 82.439297) scale(0.09 -0.09)">
      <defs>
       <path id="DejaVuSans-39" d="M 1831 0 
L 50 4666 
L 709 4666 
L 2188 738 
L 3669 4666 
L 4325 4666 
L 2547 0 
L 1831 0 
z
" transform="scale(0.015625)"/>
       <path id="DejaVuSans-47" d="M 2906 2969 
L 2906 4863 
L 3481 4863 
L 3481 0 
L 2906 0 
L 2906 525 
Q 2725 213 2448 61 
Q 2172 -91 1784 -91 
Q 1150 -91 751 415 
Q 353 922 353 1747 
Q 353 2572 751 3078 
Q 1150 3584 1784 3584 
Q 2172 3584 2448 3432 
Q 2725 3281 2906 2969 
z
M 947 1747 
Q 947 1113 1208 752 
Q 1469 391 1925 391 
Q 2381 391 2643 752 
Q 2906 1113 2906 1747 
Q 2906 2381 2643 2742 
Q 2381 3103 1925 3103 
Q 1469 3103 1208 2742 
Q 947 2381 947 1747 
z
" transform="scale(0.015625)"/>
       <path id="DejaVuSans-57" d="M 1172 4494 
L 1172 3500 
L 2356 3500 
L 2356 3053 
L 1172 3053 
L 1172 1153 
Q 1172 725 1289 603 
Q 1406 481 1766 481 
L 2356 481 
L 2356 0 
L 1766 0 
Q 1100 0 847 248 
Q 594 497 594 1153 
L 594 3053 
L 172 3053 
L 172 3500 
L 594 3500 
L 594 4494 
L 1172 4494 
z
" transform="scale(0.015625)"/>
      </defs>
      <use xlink:href="#DejaVuSans-39"/>
      <use xlink:href="#DejaVuSans-44" transform="translate(60.640625 0)"/>
      <use xlink:href="#DejaVuSans-4f" transform="translate(121.921875 0)"/>
      <use xlink:href="#DejaVuSans-4c" transform="translate(149.703125 0)"/>
      <use xlink:href="#DejaVuSans-47" transform="translate(177.484375 0)"/>
      <use xlink:href="#DejaVuSans-44" transform="translate(240.96875 0)"/>
      <use xlink:href="#DejaVuSans-57" transform="translate(302.25 0)"/>
      <use xlink:href="#DejaVuSans-4c" transform="translate(341.453125 0)"/>
      <use xlink:href="#DejaVuSans-52" transform="translate(369.234375 0)"/>
      <use xlink:href="#DejaVuSans-51" transform="translate(430.421875 0)"/>
      <use xlink:href="#DejaVuSans-3" transform="translate(493.796875 0)"/>
      <use xlink:href="#DejaVuSans-4f" transform="translate(525.578125 0)"/>
      <use xlink:href="#DejaVuSans-52" transform="translate(553.359375 0)"/>
      <use xlink:href="#DejaVuSans-56" transform="translate(614.546875 0)"/>
      <use xlink:href="#DejaVuSans-56" transform="translate(666.640625 0)"/>
     </g>
    </g>
   </g>
  </g>
  <g id="axes_2">
   <g id="patch_7">
    <path d="M 480.074403 414.36 
L 835.165312 414.36 
L 835.165312 54 
L 480.074403 54 
z
" style="fill: #ffffff"/>
   </g>
   <g id="matplotlib.axis_3">
    <g id="xtick_8">
     <g id="line2d_26">
      <g>
       <use xlink:href="#m2001b15229" x="483.799133" y="414.36" style="fill: #627d98; stroke: #627d98; stroke-width: 0.8"/>
      </g>
     </g>
     <g id="text_20">
      <!-- 0 -->
      <g style="fill: #627d98" transform="translate(480.936008 428.197891) scale(0.09 -0.09)">
       <use xlink:href="#DejaVuSans-13"/>
      </g>
     </g>
    </g>
    <g id="xtick_9">
     <g id="line2d_27">
      <g>
       <use xlink:href="#m2001b15229" x="545.877963" y="414.36" style="fill: #627d98; stroke: #627d98; stroke-width: 0.8"/>
      </g>
     </g>
     <g id="text_21">
      <!-- 5 -->
      <g style="fill: #627d98" transform="translate(543.014838 428.197891) scale(0.09 -0.09)">
       <use xlink:href="#DejaVuSans-18"/>
      </g>
     </g>
    </g>
    <g id="xtick_10">
     <g id="line2d_28">
      <g>
       <use xlink:href="#m2001b15229" x="607.956794" y="414.36" style="fill: #627d98; stroke: #627d98; stroke-width: 0.8"/>
      </g>
     </g>
     <g id="text_22">
      <!-- 10 -->
      <g style="fill: #627d98" transform="translate(602.230544 428.197891) scale(0.09 -0.09)">
       <use xlink:href="#DejaVuSans-14"/>
       <use xlink:href="#DejaVuSans-13" transform="translate(63.625 0)"/>
      </g>
     </g>
    </g>
    <g id="xtick_11">
     <g id="line2d_29">
      <g>
       <use xlink:href="#m2001b15229" x="670.035624" y="414.36" style="fill: #627d98; stroke: #627d98; stroke-width: 0.8"/>
      </g>
     </g>
     <g id="text_23">
      <!-- 15 -->
      <g style="fill: #627d98" transform="translate(664.309374 428.197891) scale(0.09 -0.09)">
       <use xlink:href="#DejaVuSans-14"/>
       <use xlink:href="#DejaVuSans-18" transform="translate(63.625 0)"/>
      </g>
     </g>
    </g>
    <g id="xtick_12">
     <g id="line2d_30">
      <g>
       <use xlink:href="#m2001b15229" x="732.114454" y="414.36" style="fill: #627d98; stroke: #627d98; stroke-width: 0.8"/>
      </g>
     </g>
     <g id="text_24">
      <!-- 20 -->
      <g style="fill: #627d98" transform="translate(726.388204 428.197891) scale(0.09 -0.09)">
       <use xlink:href="#DejaVuSans-15"/>
       <use xlink:href="#DejaVuSans-13" transform="translate(63.625 0)"/>
      </g>
     </g>
    </g>
    <g id="xtick_13">
     <g id="line2d_31">
      <g>
       <use xlink:href="#m2001b15229" x="794.193285" y="414.36" style="fill: #627d98; stroke: #627d98; stroke-width: 0.8"/>
      </g>
     </g>
     <g id="text_25">
      <!-- 25 -->
      <g style="fill: #627d98" transform="translate(788.467035 428.197891) scale(0.09 -0.09)">
       <use xlink:href="#DejaVuSans-15"/>
       <use xlink:href="#DejaVuSans-18" transform="translate(63.625 0)"/>
      </g>
     </g>
    </g>
    <g id="text_26">
     <!-- Epoch -->
     <g transform="translate(642.30892 441.958437) scale(0.1 -0.1)">
      <use xlink:href="#DejaVuSans-28"/>
      <use xlink:href="#DejaVuSans-53" transform="translate(63.1875 0)"/>
      <use xlink:href="#DejaVuSans-52" transform="translate(126.671875 0)"/>
      <use xlink:href="#DejaVuSans-46" transform="translate(187.859375 0)"/>
      <use xlink:href="#DejaVuSans-4b" transform="translate(242.84375 0)"/>
     </g>
    </g>
   </g>
   <g id="matplotlib.axis_4">
    <g id="ytick_8">
     <g id="line2d_32">
      <path d="M 480.074403 386.722759 
L 835.165312 386.722759 
" clip-path="url(#pe3194e5f94)" style="fill: none; stroke: #d9e2ec; stroke-opacity: 0.8; stroke-width: 0.7; stroke-linecap: square"/>
     </g>
     <g id="line2d_33">
      <g>
       <use xlink:href="#mafbf9c6cfe" x="480.074403" y="386.722759" style="fill: #627d98; stroke: #627d98; stroke-width: 0.8"/>
      </g>
     </g>
     <g id="text_27">
      <!-- 0.04 -->
      <g style="fill: #627d98" transform="translate(453.035341 390.141705) scale(0.09 -0.09)">
       <defs>
        <path id="DejaVuSans-17" d="M 2419 4116 
L 825 1625 
L 2419 1625 
L 2419 4116 
z
M 2253 4666 
L 3047 4666 
L 3047 1625 
L 3713 1625 
L 3713 1100 
L 3047 1100 
L 3047 0 
L 2419 0 
L 2419 1100 
L 313 1100 
L 313 1709 
L 2253 4666 
z
" transform="scale(0.015625)"/>
       </defs>
       <use xlink:href="#DejaVuSans-13"/>
       <use xlink:href="#DejaVuSans-11" transform="translate(63.625 0)"/>
       <use xlink:href="#DejaVuSans-13" transform="translate(95.40625 0)"/>
       <use xlink:href="#DejaVuSans-17" transform="translate(159.03125 0)"/>
      </g>
     </g>
    </g>
    <g id="ytick_9">
     <g id="line2d_34">
      <path d="M 480.074403 345.734714 
L 835.165312 345.734714 
" clip-path="url(#pe3194e5f94)" style="fill: none; stroke: #d9e2ec; stroke-opacity: 0.8; stroke-width: 0.7; stroke-linecap: square"/>
     </g>
     <g id="line2d_35">
      <g>
       <use xlink:href="#mafbf9c6cfe" x="480.074403" y="345.734714" style="fill: #627d98; stroke: #627d98; stroke-width: 0.8"/>
      </g>
     </g>
     <g id="text_28">
      <!-- 0.06 -->
      <g style="fill: #627d98" transform="translate(453.035341 349.153659) scale(0.09 -0.09)">
       <defs>
        <path id="DejaVuSans-19" d="M 2113 2584 
Q 1688 2584 1439 2293 
Q 1191 2003 1191 1497 
Q 1191 994 1439 701 
Q 1688 409 2113 409 
Q 2538 409 2786 701 
Q 3034 994 3034 1497 
Q 3034 2003 2786 2293 
Q 2538 2584 2113 2584 
z
M 3366 4563 
L 3366 3988 
Q 3128 4100 2886 4159 
Q 2644 4219 2406 4219 
Q 1781 4219 1451 3797 
Q 1122 3375 1075 2522 
Q 1259 2794 1537 2939 
Q 1816 3084 2150 3084 
Q 2853 3084 3261 2657 
Q 3669 2231 3669 1497 
Q 3669 778 3244 343 
Q 2819 -91 2113 -91 
Q 1303 -91 875 529 
Q 447 1150 447 2328 
Q 447 3434 972 4092 
Q 1497 4750 2381 4750 
Q 2619 4750 2861 4703 
Q 3103 4656 3366 4563 
z
" transform="scale(0.015625)"/>
       </defs>
       <use xlink:href="#DejaVuSans-13"/>
       <use xlink:href="#DejaVuSans-11" transform="translate(63.625 0)"/>
       <use xlink:href="#DejaVuSans-13" transform="translate(95.40625 0)"/>
       <use xlink:href="#DejaVuSans-19" transform="translate(159.03125 0)"/>
      </g>
     </g>
    </g>
    <g id="ytick_10">
     <g id="line2d_36">
      <path d="M 480.074403 304.746668 
L 835.165312 304.746668 
" clip-path="url(#pe3194e5f94)" style="fill: none; stroke: #d9e2ec; stroke-opacity: 0.8; stroke-width: 0.7; stroke-linecap: square"/>
     </g>
     <g id="line2d_37">
      <g>
       <use xlink:href="#mafbf9c6cfe" x="480.074403" y="304.746668" style="fill: #627d98; stroke: #627d98; stroke-width: 0.8"/>
      </g>
     </g>
     <g id="text_29">
      <!-- 0.08 -->
      <g style="fill: #627d98" transform="translate(453.035341 308.165613) scale(0.09 -0.09)">
       <defs>
        <path id="DejaVuSans-1b" d="M 2034 2216 
Q 1584 2216 1326 1975 
Q 1069 1734 1069 1313 
Q 1069 891 1326 650 
Q 1584 409 2034 409 
Q 2484 409 2743 651 
Q 3003 894 3003 1313 
Q 3003 1734 2745 1975 
Q 2488 2216 2034 2216 
z
M 1403 2484 
Q 997 2584 770 2862 
Q 544 3141 544 3541 
Q 544 4100 942 4425 
Q 1341 4750 2034 4750 
Q 2731 4750 3128 4425 
Q 3525 4100 3525 3541 
Q 3525 3141 3298 2862 
Q 3072 2584 2669 2484 
Q 3125 2378 3379 2068 
Q 3634 1759 3634 1313 
Q 3634 634 3220 271 
Q 2806 -91 2034 -91 
Q 1263 -91 848 271 
Q 434 634 434 1313 
Q 434 1759 690 2068 
Q 947 2378 1403 2484 
z
M 1172 3481 
Q 1172 3119 1398 2916 
Q 1625 2713 2034 2713 
Q 2441 2713 2670 2916 
Q 2900 3119 2900 3481 
Q 2900 3844 2670 4047 
Q 2441 4250 2034 4250 
Q 1625 4250 1398 4047 
Q 1172 3844 1172 3481 
z
" transform="scale(0.015625)"/>
       </defs>
       <use xlink:href="#DejaVuSans-13"/>
       <use xlink:href="#DejaVuSans-11" transform="translate(63.625 0)"/>
       <use xlink:href="#DejaVuSans-13" transform="translate(95.40625 0)"/>
       <use xlink:href="#DejaVuSans-1b" transform="translate(159.03125 0)"/>
      </g>
     </g>
    </g>
    <g id="ytick_11">
     <g id="line2d_38">
      <path d="M 480.074403 263.758622 
L 835.165312 263.758622 
" clip-path="url(#pe3194e5f94)" style="fill: none; stroke: #d9e2ec; stroke-opacity: 0.8; stroke-width: 0.7; stroke-linecap: square"/>
     </g>
     <g id="line2d_39">
      <g>
       <use xlink:href="#mafbf9c6cfe" x="480.074403" y="263.758622" style="fill: #627d98; stroke: #627d98; stroke-width: 0.8"/>
      </g>
     </g>
     <g id="text_30">
      <!-- 0.10 -->
      <g style="fill: #627d98" transform="translate(453.035341 267.177568) scale(0.09 -0.09)">
       <use xlink:href="#DejaVuSans-13"/>
       <use xlink:href="#DejaVuSans-11" transform="translate(63.625 0)"/>
       <use xlink:href="#DejaVuSans-14" transform="translate(95.40625 0)"/>
       <use xlink:href="#DejaVuSans-13" transform="translate(159.03125 0)"/>
      </g>
     </g>
    </g>
    <g id="ytick_12">
     <g id="line2d_40">
      <path d="M 480.074403 222.770577 
L 835.165312 222.770577 
" clip-path="url(#pe3194e5f94)" style="fill: none; stroke: #d9e2ec; stroke-opacity: 0.8; stroke-width: 0.7; stroke-linecap: square"/>
     </g>
     <g id="line2d_41">
      <g>
       <use xlink:href="#mafbf9c6cfe" x="480.074403" y="222.770577" style="fill: #627d98; stroke: #627d98; stroke-width: 0.8"/>
      </g>
     </g>
     <g id="text_31">
      <!-- 0.12 -->
      <g style="fill: #627d98" transform="translate(453.035341 226.189522) scale(0.09 -0.09)">
       <use xlink:href="#DejaVuSans-13"/>
       <use xlink:href="#DejaVuSans-11" transform="translate(63.625 0)"/>
       <use xlink:href="#DejaVuSans-14" transform="translate(95.40625 0)"/>
       <use xlink:href="#DejaVuSans-15" transform="translate(159.03125 0)"/>
      </g>
     </g>
    </g>
    <g id="ytick_13">
     <g id="line2d_42">
      <path d="M 480.074403 181.782531 
L 835.165312 181.782531 
" clip-path="url(#pe3194e5f94)" style="fill: none; stroke: #d9e2ec; stroke-opacity: 0.8; stroke-width: 0.7; stroke-linecap: square"/>
     </g>
     <g id="line2d_43">
      <g>
       <use xlink:href="#mafbf9c6cfe" x="480.074403" y="181.782531" style="fill: #627d98; stroke: #627d98; stroke-width: 0.8"/>
      </g>
     </g>
     <g id="text_32">
      <!-- 0.14 -->
      <g style="fill: #627d98" transform="translate(453.035341 185.201477) scale(0.09 -0.09)">
       <use xlink:href="#DejaVuSans-13"/>
       <use xlink:href="#DejaVuSans-11" transform="translate(63.625 0)"/>
       <use xlink:href="#DejaVuSans-14" transform="translate(95.40625 0)"/>
       <use xlink:href="#DejaVuSans-17" transform="translate(159.03125 0)"/>
      </g>
     </g>
    </g>
    <g id="ytick_14">
     <g id="line2d_44">
      <path d="M 480.074403 140.794486 
L 835.165312 140.794486 
" clip-path="url(#pe3194e5f94)" style="fill: none; stroke: #d9e2ec; stroke-opacity: 0.8; stroke-width: 0.7; stroke-linecap: square"/>
     </g>
     <g id="line2d_45">
      <g>
       <use xlink:href="#mafbf9c6cfe" x="480.074403" y="140.794486" style="fill: #627d98; stroke: #627d98; stroke-width: 0.8"/>
      </g>
     </g>
     <g id="text_33">
      <!-- 0.16 -->
      <g style="fill: #627d98" transform="translate(453.035341 144.213431) scale(0.09 -0.09)">
       <use xlink:href="#DejaVuSans-13"/>
       <use xlink:href="#DejaVuSans-11" transform="translate(63.625 0)"/>
       <use xlink:href="#DejaVuSans-14" transform="translate(95.40625 0)"/>
       <use xlink:href="#DejaVuSans-19" transform="translate(159.03125 0)"/>
      </g>
     </g>
    </g>
    <g id="ytick_15">
     <g id="line2d_46">
      <path d="M 480.074403 99.80644 
L 835.165312 99.80644 
" clip-path="url(#pe3194e5f94)" style="fill: none; stroke: #d9e2ec; stroke-opacity: 0.8; stroke-width: 0.7; stroke-linecap: square"/>
     </g>
     <g id="line2d_47">
      <g>
       <use xlink:href="#mafbf9c6cfe" x="480.074403" y="99.80644" style="fill: #627d98; stroke: #627d98; stroke-width: 0.8"/>
      </g>
     </g>
     <g id="text_34">
      <!-- 0.18 -->
      <g style="fill: #627d98" transform="translate(453.035341 103.225385) scale(0.09 -0.09)">
       <use xlink:href="#DejaVuSans-13"/>
       <use xlink:href="#DejaVuSans-11" transform="translate(63.625 0)"/>
       <use xlink:href="#DejaVuSans-14" transform="translate(95.40625 0)"/>
       <use xlink:href="#DejaVuSans-1b" transform="translate(159.03125 0)"/>
      </g>
     </g>
    </g>
    <g id="ytick_16">
     <g id="line2d_48">
      <path d="M 480.074403 58.818394 
L 835.165312 58.818394 
" clip-path="url(#pe3194e5f94)" style="fill: none; stroke: #d9e2ec; stroke-opacity: 0.8; stroke-width: 0.7; stroke-linecap: square"/>
     </g>
     <g id="line2d_49">
      <g>
       <use xlink:href="#mafbf9c6cfe" x="480.074403" y="58.818394" style="fill: #627d98; stroke: #627d98; stroke-width: 0.8"/>
      </g>
     </g>
     <g id="text_35">
      <!-- 0.20 -->
      <g style="fill: #627d98" transform="translate(453.035341 62.23734) scale(0.09 -0.09)">
       <use xlink:href="#DejaVuSans-13"/>
       <use xlink:href="#DejaVuSans-11" transform="translate(63.625 0)"/>
       <use xlink:href="#DejaVuSans-15" transform="translate(95.40625 0)"/>
       <use xlink:href="#DejaVuSans-13" transform="translate(159.03125 0)"/>
      </g>
     </g>
    </g>
    <g id="text_36">
     <!-- Loss -->
     <g transform="translate(446.632997 245.147187) rotate(-90) scale(0.1 -0.1)">
      <use xlink:href="#DejaVuSans-2f"/>
      <use xlink:href="#DejaVuSans-52" transform="translate(53.96875 0)"/>
      <use xlink:href="#DejaVuSans-56" transform="translate(115.15625 0)"/>
      <use xlink:href="#DejaVuSans-56" transform="translate(167.25 0)"/>
     </g>
    </g>
   </g>
   <g id="line2d_50">
    <path d="M 496.214899 113.281592 
L 508.630665 182.338627 
L 521.046431 221.274324 
L 533.462197 252.446519 
L 545.877963 278.321187 
L 558.29373 300.181558 
L 570.709496 317.670916 
L 583.125262 331.931823 
L 595.541028 343.898982 
L 607.956794 353.195748 
L 620.37256 360.77435 
L 632.788326 367.561249 
L 645.204092 371.947725 
L 657.619858 375.610084 
L 670.035624 377.639342 
L 682.45139 381.010445 
L 694.867156 383.272291 
L 707.282922 385.638365 
L 719.698688 389.066483 
L 732.114454 389.964749 
L 744.53022 392.161564 
L 756.945986 391.289585 
L 769.361752 394.125454 
L 781.777518 393.802856 
L 794.193285 397.146528 
L 806.609051 397.619161 
L 819.024817 397.98 
" clip-path="url(#pe3194e5f94)" style="fill: none; stroke: #1d6fa5; stroke-width: 2.2; stroke-linecap: square"/>
   </g>
   <g id="line2d_51">
    <path d="M 496.214899 70.38 
L 508.630665 96.150736 
L 521.046431 134.170393 
L 533.462197 192.148499 
L 545.877963 250.738017 
L 558.29373 286.329748 
L 570.709496 305.077332 
L 583.125262 327.141843 
L 595.541028 341.028028 
L 607.956794 352.885381 
L 620.37256 358.720978 
L 632.788326 364.355327 
L 645.204092 364.117923 
L 657.619858 372.412188 
L 670.035624 374.092168 
L 682.45139 379.747667 
L 694.867156 381.468263 
L 707.282922 382.559023 
L 719.698688 386.604338 
L 732.114454 380.893704 
L 744.53022 386.61237 
L 756.945986 388.418835 
L 769.361752 388.238505 
L 781.777518 394.632992 
L 794.193285 393.417334 
L 806.609051 394.57833 
L 819.024817 395.879852 
" clip-path="url(#pe3194e5f94)" style="fill: none; stroke: #168a8a; stroke-width: 2.2; stroke-linecap: square"/>
   </g>
   <g id="patch_8">
    <path d="M 480.074403 414.36 
L 480.074403 54 
" style="fill: none; stroke: #d9e2ec; stroke-width: 0.8; stroke-linejoin: miter; stroke-linecap: square"/>
   </g>
   <g id="patch_9">
    <path d="M 835.165312 414.36 
L 835.165312 54 
" style="fill: none; stroke: #d9e2ec; stroke-width: 0.8; stroke-linejoin: miter; stroke-linecap: square"/>
   </g>
   <g id="patch_10">
    <path d="M 480.074403 414.36 
L 835.165312 414.36 
" style="fill: none; stroke: #d9e2ec; stroke-width: 0.8; stroke-linejoin: miter; stroke-linecap: square"/>
   </g>
   <g id="patch_11">
    <path d="M 480.074403 54 
L 835.165312 54 
" style="fill: none; stroke: #d9e2ec; stroke-width: 0.8; stroke-linejoin: miter; stroke-linecap: square"/>
   </g>
   <g id="text_37">
    <!-- 0.0355 -->
    <g style="fill: #b54747" transform="translate(827.024817 383.879852) scale(0.1 -0.1)">
     <defs>
      <path id="DejaVuSans-Bold-13" d="M 2944 2338 
Q 2944 3213 2780 3570 
Q 2616 3928 2228 3928 
Q 1841 3928 1675 3570 
Q 1509 3213 1509 2338 
Q 1509 1453 1675 1090 
Q 1841 728 2228 728 
Q 2613 728 2778 1090 
Q 2944 1453 2944 2338 
z
M 4147 2328 
Q 4147 1169 3647 539 
Q 3147 -91 2228 -91 
Q 1306 -91 806 539 
Q 306 1169 306 2328 
Q 306 3491 806 4120 
Q 1306 4750 2228 4750 
Q 3147 4750 3647 4120 
Q 4147 3491 4147 2328 
z
" transform="scale(0.015625)"/>
      <path id="DejaVuSans-Bold-11" d="M 653 1209 
L 1778 1209 
L 1778 0 
L 653 0 
L 653 1209 
z
" transform="scale(0.015625)"/>
      <path id="DejaVuSans-Bold-16" d="M 2981 2516 
Q 3453 2394 3698 2092 
Q 3944 1791 3944 1325 
Q 3944 631 3412 270 
Q 2881 -91 1863 -91 
Q 1503 -91 1142 -33 
Q 781 25 428 141 
L 428 1069 
Q 766 900 1098 814 
Q 1431 728 1753 728 
Q 2231 728 2486 893 
Q 2741 1059 2741 1369 
Q 2741 1688 2480 1852 
Q 2219 2016 1709 2016 
L 1228 2016 
L 1228 2791 
L 1734 2791 
Q 2188 2791 2409 2933 
Q 2631 3075 2631 3366 
Q 2631 3634 2415 3781 
Q 2200 3928 1806 3928 
Q 1516 3928 1219 3862 
Q 922 3797 628 3669 
L 628 4550 
Q 984 4650 1334 4700 
Q 1684 4750 2022 4750 
Q 2931 4750 3382 4451 
Q 3834 4153 3834 3553 
Q 3834 3144 3618 2883 
Q 3403 2622 2981 2516 
z
" transform="scale(0.015625)"/>
      <path id="DejaVuSans-Bold-18" d="M 678 4666 
L 3669 4666 
L 3669 3781 
L 1638 3781 
L 1638 3059 
Q 1775 3097 1914 3117 
Q 2053 3138 2203 3138 
Q 3056 3138 3531 2711 
Q 4006 2284 4006 1522 
Q 4006 766 3489 337 
Q 2972 -91 2053 -91 
Q 1656 -91 1267 -14 
Q 878 63 494 219 
L 494 1166 
Q 875 947 1217 837 
Q 1559 728 1863 728 
Q 2300 728 2551 942 
Q 2803 1156 2803 1522 
Q 2803 1891 2551 2103 
Q 2300 2316 1863 2316 
Q 1603 2316 1309 2248 
Q 1016 2181 678 2041 
L 678 4666 
z
" transform="scale(0.015625)"/>
     </defs>
     <use xlink:href="#DejaVuSans-Bold-13"/>
     <use xlink:href="#DejaVuSans-Bold-11" transform="translate(69.578125 0)"/>
     <use xlink:href="#DejaVuSans-Bold-13" transform="translate(107.5625 0)"/>
     <use xlink:href="#DejaVuSans-Bold-16" transform="translate(177.140625 0)"/>
     <use xlink:href="#DejaVuSans-Bold-18" transform="translate(246.71875 0)"/>
     <use xlink:href="#DejaVuSans-Bold-18" transform="translate(316.296875 0)"/>
    </g>
   </g>
   <g id="text_38">
    <!-- Phase 3: self-supervised CT+MRI fusion -->
    <g style="fill: #102a43" transform="translate(534.51267 48) scale(0.11 -0.11)">
     <defs>
      <path id="DejaVuSans-Bold-4f" d="M 538 4863 
L 1656 4863 
L 1656 0 
L 538 0 
L 538 4863 
z
" transform="scale(0.015625)"/>
      <path id="DejaVuSans-Bold-49" d="M 2841 4863 
L 2841 4128 
L 2222 4128 
Q 1984 4128 1890 4042 
Q 1797 3956 1797 3744 
L 1797 3500 
L 2753 3500 
L 2753 2700 
L 1797 2700 
L 1797 0 
L 678 0 
L 678 2700 
L 122 2700 
L 122 3500 
L 678 3500 
L 678 3744 
Q 678 4316 997 4589 
Q 1316 4863 1984 4863 
L 2841 4863 
z
" transform="scale(0.015625)"/>
      <path id="DejaVuSans-Bold-58" d="M 500 1363 
L 500 3500 
L 1625 3500 
L 1625 3150 
Q 1625 2866 1622 2436 
Q 1619 2006 1619 1863 
Q 1619 1441 1641 1255 
Q 1663 1069 1716 984 
Q 1784 875 1895 815 
Q 2006 756 2150 756 
Q 2500 756 2700 1025 
Q 2900 1294 2900 1772 
L 2900 3500 
L 4019 3500 
L 4019 0 
L 2900 0 
L 2900 506 
Q 2647 200 2364 54 
Q 2081 -91 1741 -91 
Q 1134 -91 817 281 
Q 500 653 500 1363 
z
" transform="scale(0.015625)"/>
      <path id="DejaVuSans-Bold-53" d="M 1656 506 
L 1656 -1331 
L 538 -1331 
L 538 3500 
L 1656 3500 
L 1656 2988 
Q 1888 3294 2169 3439 
Q 2450 3584 2816 3584 
Q 3463 3584 3878 3070 
Q 4294 2556 4294 1747 
Q 4294 938 3878 423 
Q 3463 -91 2816 -91 
Q 2450 -91 2169 54 
Q 1888 200 1656 506 
z
M 2400 2772 
Q 2041 2772 1848 2508 
Q 1656 2244 1656 1747 
Q 1656 1250 1848 986 
Q 2041 722 2400 722 
Q 2759 722 2948 984 
Q 3138 1247 3138 1747 
Q 3138 2247 2948 2509 
Q 2759 2772 2400 2772 
z
" transform="scale(0.015625)"/>
      <path id="DejaVuSans-Bold-55" d="M 3138 2547 
Q 2991 2616 2845 2648 
Q 2700 2681 2553 2681 
Q 2122 2681 1889 2404 
Q 1656 2128 1656 1613 
L 1656 0 
L 538 0 
L 538 3500 
L 1656 3500 
L 1656 2925 
Q 1872 3269 2151 3426 
Q 2431 3584 2822 3584 
Q 2878 3584 2943 3579 
Q 3009 3575 3134 3559 
L 3138 2547 
z
" transform="scale(0.015625)"/>
      <path id="DejaVuSans-Bold-59" d="M 97 3500 
L 1216 3500 
L 2088 1081 
L 2956 3500 
L 4078 3500 
L 2700 0 
L 1472 0 
L 97 3500 
z
" transform="scale(0.015625)"/>
      <path id="DejaVuSans-Bold-47" d="M 2919 2988 
L 2919 4863 
L 4044 4863 
L 4044 0 
L 2919 0 
L 2919 506 
Q 2688 197 2409 53 
Q 2131 -91 1766 -91 
Q 1119 -91 703 423 
Q 288 938 288 1747 
Q 288 2556 703 3070 
Q 1119 3584 1766 3584 
Q 2128 3584 2408 3439 
Q 2688 3294 2919 2988 
z
M 2181 722 
Q 2541 722 2730 984 
Q 2919 1247 2919 1747 
Q 2919 2247 2730 2509 
Q 2541 2772 2181 2772 
Q 1825 2772 1636 2509 
Q 1447 2247 1447 1747 
Q 1447 1247 1636 984 
Q 1825 722 2181 722 
z
" transform="scale(0.015625)"/>
      <path id="DejaVuSans-Bold-e" d="M 3053 4013 
L 3053 2375 
L 4684 2375 
L 4684 1638 
L 3053 1638 
L 3053 0 
L 2309 0 
L 2309 1638 
L 678 1638 
L 678 2375 
L 2309 2375 
L 2309 4013 
L 3053 4013 
z
" transform="scale(0.015625)"/>
     </defs>
     <use xlink:href="#DejaVuSans-Bold-33"/>
     <use xlink:href="#DejaVuSans-Bold-4b" transform="translate(73.296875 0)"/>
     <use xlink:href="#DejaVuSans-Bold-44" transform="translate(144.484375 0)"/>
     <use xlink:href="#DejaVuSans-Bold-56" transform="translate(211.96875 0)"/>
     <use xlink:href="#DejaVuSans-Bold-48" transform="translate(271.484375 0)"/>
     <use xlink:href="#DejaVuSans-Bold-3" transform="translate(339.3125 0)"/>
     <use xlink:href="#DejaVuSans-Bold-16" transform="translate(374.125 0)"/>
     <use xlink:href="#DejaVuSans-Bold-1d" transform="translate(443.703125 0)"/>
     <use xlink:href="#DejaVuSans-Bold-3" transform="translate(483.6875 0)"/>
     <use xlink:href="#DejaVuSans-Bold-56" transform="translate(518.5 0)"/>
     <use xlink:href="#DejaVuSans-Bold-48" transform="translate(578.015625 0)"/>
     <use xlink:href="#DejaVuSans-Bold-4f" transform="translate(645.84375 0)"/>
     <use xlink:href="#DejaVuSans-Bold-49" transform="translate(680.125 0)"/>
     <use xlink:href="#DejaVuSans-Bold-10" transform="translate(721.875 0)"/>
     <use xlink:href="#DejaVuSans-Bold-56" transform="translate(763.375 0)"/>
     <use xlink:href="#DejaVuSans-Bold-58" transform="translate(822.890625 0)"/>
     <use xlink:href="#DejaVuSans-Bold-53" transform="translate(894.078125 0)"/>
     <use xlink:href="#DejaVuSans-Bold-48" transform="translate(965.65625 0)"/>
     <use xlink:href="#DejaVuSans-Bold-55" transform="translate(1033.484375 0)"/>
     <use xlink:href="#DejaVuSans-Bold-59" transform="translate(1082.796875 0)"/>
     <use xlink:href="#DejaVuSans-Bold-4c" transform="translate(1147.984375 0)"/>
     <use xlink:href="#DejaVuSans-Bold-56" transform="translate(1182.265625 0)"/>
     <use xlink:href="#DejaVuSans-Bold-48" transform="translate(1241.78125 0)"/>
     <use xlink:href="#DejaVuSans-Bold-47" transform="translate(1309.609375 0)"/>
     <use xlink:href="#DejaVuSans-Bold-3" transform="translate(1381.1875 0)"/>
     <use xlink:href="#DejaVuSans-Bold-26" transform="translate(1416 0)"/>
     <use xlink:href="#DejaVuSans-Bold-37" transform="translate(1489.390625 0)"/>
     <use xlink:href="#DejaVuSans-Bold-e" transform="translate(1557.609375 0)"/>
     <use xlink:href="#DejaVuSans-Bold-30" transform="translate(1641.40625 0)"/>
     <use xlink:href="#DejaVuSans-Bold-35" transform="translate(1740.921875 0)"/>
     <use xlink:href="#DejaVuSans-Bold-2c" transform="translate(1817.921875 0)"/>
     <use xlink:href="#DejaVuSans-Bold-3" transform="translate(1855.125 0)"/>
     <use xlink:href="#DejaVuSans-Bold-49" transform="translate(1889.9375 0)"/>
     <use xlink:href="#DejaVuSans-Bold-58" transform="translate(1933.4375 0)"/>
     <use xlink:href="#DejaVuSans-Bold-56" transform="translate(2004.625 0)"/>
     <use xlink:href="#DejaVuSans-Bold-4c" transform="translate(2064.140625 0)"/>
     <use xlink:href="#DejaVuSans-Bold-52" transform="translate(2098.421875 0)"/>
     <use xlink:href="#DejaVuSans-Bold-51" transform="translate(2167.125 0)"/>
    </g>
   </g>
   <g id="PathCollection_1">
    <defs>
     <path id="m80d7bf42e9" d="M 0 3.708099 
C 0.983399 3.708099 1.926654 3.317391 2.622022 2.622022 
C 3.317391 1.926654 3.708099 0.983399 3.708099 0 
C 3.708099 -0.983399 3.317391 -1.926654 2.622022 -2.622022 
C 1.926654 -3.317391 0.983399 -3.708099 0 -3.708099 
C -0.983399 -3.708099 -1.926654 -3.317391 -2.622022 -2.622022 
C -3.317391 -1.926654 -3.708099 -0.983399 -3.708099 0 
C -3.708099 0.983399 -3.317391 1.926654 -2.622022 2.622022 
C -1.926654 3.317391 -0.983399 3.708099 0 3.708099 
z
" style="stroke: #b54747"/>
    </defs>
    <g clip-path="url(#pe3194e5f94)">
     <use xlink:href="#m80d7bf42e9" x="819.024817" y="395.879852" style="fill: #b54747; stroke: #b54747"/>
    </g>
   </g>
   <g id="legend_2">
    <g id="line2d_52">
     <path d="M 734.320312 65.788594 
L 743.320312 65.788594 
L 752.320312 65.788594 
" style="fill: none; stroke: #1d6fa5; stroke-width: 2.2; stroke-linecap: square"/>
    </g>
    <g id="text_39">
     <!-- Train loss -->
     <g transform="translate(759.520312 68.938594) scale(0.09 -0.09)">
      <use xlink:href="#DejaVuSans-37"/>
      <use xlink:href="#DejaVuSans-55" transform="translate(46.375 0)"/>
      <use xlink:href="#DejaVuSans-44" transform="translate(87.484375 0)"/>
      <use xlink:href="#DejaVuSans-4c" transform="translate(148.765625 0)"/>
      <use xlink:href="#DejaVuSans-51" transform="translate(176.546875 0)"/>
      <use xlink:href="#DejaVuSans-3" transform="translate(239.921875 0)"/>
      <use xlink:href="#DejaVuSans-4f" transform="translate(271.703125 0)"/>
      <use xlink:href="#DejaVuSans-52" transform="translate(299.484375 0)"/>
      <use xlink:href="#DejaVuSans-56" transform="translate(360.671875 0)"/>
      <use xlink:href="#DejaVuSans-56" transform="translate(412.765625 0)"/>
     </g>
    </g>
    <g id="line2d_53">
     <path d="M 734.320312 79.289297 
L 743.320312 79.289297 
L 752.320312 79.289297 
" style="fill: none; stroke: #168a8a; stroke-width: 2.2; stroke-linecap: square"/>
    </g>
    <g id="text_40">
     <!-- Validation loss -->
     <g transform="translate(759.520312 82.439297) scale(0.09 -0.09)">
      <use xlink:href="#DejaVuSans-39"/>
      <use xlink:href="#DejaVuSans-44" transform="translate(60.640625 0)"/>
      <use xlink:href="#DejaVuSans-4f" transform="translate(121.921875 0)"/>
      <use xlink:href="#DejaVuSans-4c" transform="translate(149.703125 0)"/>
      <use xlink:href="#DejaVuSans-47" transform="translate(177.484375 0)"/>
      <use xlink:href="#DejaVuSans-44" transform="translate(240.96875 0)"/>
      <use xlink:href="#DejaVuSans-57" transform="translate(302.25 0)"/>
      <use xlink:href="#DejaVuSans-4c" transform="translate(341.453125 0)"/>
      <use xlink:href="#DejaVuSans-52" transform="translate(369.234375 0)"/>
      <use xlink:href="#DejaVuSans-51" transform="translate(430.421875 0)"/>
      <use xlink:href="#DejaVuSans-3" transform="translate(493.796875 0)"/>
      <use xlink:href="#DejaVuSans-4f" transform="translate(525.578125 0)"/>
      <use xlink:href="#DejaVuSans-52" transform="translate(553.359375 0)"/>
      <use xlink:href="#DejaVuSans-56" transform="translate(614.546875 0)"/>
      <use xlink:href="#DejaVuSans-56" transform="translate(666.640625 0)"/>
     </g>
    </g>
    <g id="PathCollection_2">
     <g>
      <use xlink:href="#m80d7bf42e9" x="743.320312" y="93.5775" style="fill: #b54747; stroke: #b54747"/>
     </g>
    </g>
    <g id="text_41">
     <!-- Best: epoch 27 -->
     <g transform="translate(759.520312 95.94) scale(0.09 -0.09)">
      <defs>
       <path id="DejaVuSans-25" d="M 1259 2228 
L 1259 519 
L 2272 519 
Q 2781 519 3026 730 
Q 3272 941 3272 1375 
Q 3272 1813 3026 2020 
Q 2781 2228 2272 2228 
L 1259 2228 
z
M 1259 4147 
L 1259 2741 
L 2194 2741 
Q 2656 2741 2882 2914 
Q 3109 3088 3109 3444 
Q 3109 3797 2882 3972 
Q 2656 4147 2194 4147 
L 1259 4147 
z
M 628 4666 
L 2241 4666 
Q 2963 4666 3353 4366 
Q 3744 4066 3744 3513 
Q 3744 3084 3544 2831 
Q 3344 2578 2956 2516 
Q 3422 2416 3680 2098 
Q 3938 1781 3938 1306 
Q 3938 681 3513 340 
Q 3088 0 2303 0 
L 628 0 
L 628 4666 
z
" transform="scale(0.015625)"/>
       <path id="DejaVuSans-48" d="M 3597 1894 
L 3597 1613 
L 953 1613 
Q 991 1019 1311 708 
Q 1631 397 2203 397 
Q 2534 397 2845 478 
Q 3156 559 3463 722 
L 3463 178 
Q 3153 47 2828 -22 
Q 2503 -91 2169 -91 
Q 1331 -91 842 396 
Q 353 884 353 1716 
Q 353 2575 817 3079 
Q 1281 3584 2069 3584 
Q 2775 3584 3186 3129 
Q 3597 2675 3597 1894 
z
M 3022 2063 
Q 3016 2534 2758 2815 
Q 2500 3097 2075 3097 
Q 1594 3097 1305 2825 
Q 1016 2553 972 2059 
L 3022 2063 
z
" transform="scale(0.015625)"/>
       <path id="DejaVuSans-1d" d="M 750 794 
L 1409 794 
L 1409 0 
L 750 0 
L 750 794 
z
M 750 3309 
L 1409 3309 
L 1409 2516 
L 750 2516 
L 750 3309 
z
" transform="scale(0.015625)"/>
      </defs>
      <use xlink:href="#DejaVuSans-25"/>
      <use xlink:href="#DejaVuSans-48" transform="translate(68.609375 0)"/>
      <use xlink:href="#DejaVuSans-56" transform="translate(130.140625 0)"/>
      <use xlink:href="#DejaVuSans-57" transform="translate(182.234375 0)"/>
      <use xlink:href="#DejaVuSans-1d" transform="translate(221.4375 0)"/>
      <use xlink:href="#DejaVuSans-3" transform="translate(255.125 0)"/>
      <use xlink:href="#DejaVuSans-48" transform="translate(286.90625 0)"/>
      <use xlink:href="#DejaVuSans-53" transform="translate(348.4375 0)"/>
      <use xlink:href="#DejaVuSans-52" transform="translate(411.921875 0)"/>
      <use xlink:href="#DejaVuSans-46" transform="translate(473.109375 0)"/>
      <use xlink:href="#DejaVuSans-4b" transform="translate(528.09375 0)"/>
      <use xlink:href="#DejaVuSans-3" transform="translate(591.46875 0)"/>
      <use xlink:href="#DejaVuSans-15" transform="translate(623.25 0)"/>
      <use xlink:href="#DejaVuSans-1a" transform="translate(686.875 0)"/>
     </g>
    </g>
   </g>
  </g>
  <g id="text_42">
   <!-- Training Dynamics of the Implemented Fusion Pipeline -->
   <g style="fill: #102a43" transform="translate(139.662187 21.637031) scale(0.19 -0.19)">
    <defs>
     <path id="DejaVuSans-Bold-4a" d="M 2919 594 
Q 2688 288 2409 144 
Q 2131 0 1766 0 
Q 1125 0 706 504 
Q 288 1009 288 1791 
Q 288 2575 706 3076 
Q 1125 3578 1766 3578 
Q 2131 3578 2409 3434 
Q 2688 3291 2919 2981 
L 2919 3500 
L 4044 3500 
L 4044 353 
Q 4044 -491 3511 -936 
Q 2978 -1381 1966 -1381 
Q 1638 -1381 1331 -1331 
Q 1025 -1281 716 -1178 
L 716 -306 
Q 1009 -475 1290 -558 
Q 1572 -641 1856 -641 
Q 2406 -641 2662 -400 
Q 2919 -159 2919 353 
L 2919 594 
z
M 2181 2772 
Q 1834 2772 1640 2515 
Q 1447 2259 1447 1791 
Q 1447 1309 1634 1061 
Q 1822 813 2181 813 
Q 2531 813 2725 1069 
Q 2919 1325 2919 1791 
Q 2919 2259 2725 2515 
Q 2531 2772 2181 2772 
z
" transform="scale(0.015625)"/>
     <path id="DejaVuSans-Bold-27" d="M 1791 3756 
L 1791 909 
L 2222 909 
Q 2959 909 3348 1275 
Q 3738 1641 3738 2338 
Q 3738 3031 3350 3393 
Q 2963 3756 2222 3756 
L 1791 3756 
z
M 588 4666 
L 1856 4666 
Q 2919 4666 3439 4514 
Q 3959 4363 4331 4000 
Q 4659 3684 4818 3271 
Q 4978 2859 4978 2338 
Q 4978 1809 4818 1395 
Q 4659 981 4331 666 
Q 3956 303 3431 151 
Q 2906 0 1856 0 
L 588 0 
L 588 4666 
z
" transform="scale(0.015625)"/>
     <path id="DejaVuSans-Bold-50" d="M 3781 2919 
Q 3994 3244 4286 3414 
Q 4578 3584 4928 3584 
Q 5531 3584 5847 3212 
Q 6163 2841 6163 2131 
L 6163 0 
L 5038 0 
L 5038 1825 
Q 5041 1866 5042 1909 
Q 5044 1953 5044 2034 
Q 5044 2406 4934 2573 
Q 4825 2741 4581 2741 
Q 4263 2741 4089 2478 
Q 3916 2216 3909 1719 
L 3909 0 
L 2784 0 
L 2784 1825 
Q 2784 2406 2684 2573 
Q 2584 2741 2328 2741 
Q 2006 2741 1831 2477 
Q 1656 2213 1656 1722 
L 1656 0 
L 531 0 
L 531 3500 
L 1656 3500 
L 1656 2988 
Q 1863 3284 2130 3434 
Q 2397 3584 2719 3584 
Q 3081 3584 3359 3409 
Q 3638 3234 3781 2919 
z
" transform="scale(0.015625)"/>
     <path id="DejaVuSans-Bold-46" d="M 3366 3391 
L 3366 2478 
Q 3138 2634 2908 2709 
Q 2678 2784 2431 2784 
Q 1963 2784 1702 2511 
Q 1441 2238 1441 1747 
Q 1441 1256 1702 982 
Q 1963 709 2431 709 
Q 2694 709 2930 787 
Q 3166 866 3366 1019 
L 3366 103 
Q 3103 6 2833 -42 
Q 2563 -91 2291 -91 
Q 1344 -91 809 395 
Q 275 881 275 1747 
Q 275 2613 809 3098 
Q 1344 3584 2291 3584 
Q 2566 3584 2833 3536 
Q 3100 3488 3366 3391 
z
" transform="scale(0.015625)"/>
     <path id="DejaVuSans-Bold-29" d="M 588 4666 
L 3834 4666 
L 3834 3756 
L 1791 3756 
L 1791 2888 
L 3713 2888 
L 3713 1978 
L 1791 1978 
L 1791 0 
L 588 0 
L 588 4666 
z
" transform="scale(0.015625)"/>
    </defs>
    <use xlink:href="#DejaVuSans-Bold-37"/>
    <use xlink:href="#DejaVuSans-Bold-55" transform="translate(57.234375 0)"/>
    <use xlink:href="#DejaVuSans-Bold-44" transform="translate(106.546875 0)"/>
    <use xlink:href="#DejaVuSans-Bold-4c" transform="translate(174.03125 0)"/>
    <use xlink:href="#DejaVuSans-Bold-51" transform="translate(208.3125 0)"/>
    <use xlink:href="#DejaVuSans-Bold-4c" transform="translate(279.5 0)"/>
    <use xlink:href="#DejaVuSans-Bold-51" transform="translate(313.78125 0)"/>
    <use xlink:href="#DejaVuSans-Bold-4a" transform="translate(384.96875 0)"/>
    <use xlink:href="#DejaVuSans-Bold-3" transform="translate(456.546875 0)"/>
    <use xlink:href="#DejaVuSans-Bold-27" transform="translate(491.359375 0)"/>
    <use xlink:href="#DejaVuSans-Bold-5c" transform="translate(574.375 0)"/>
    <use xlink:href="#DejaVuSans-Bold-51" transform="translate(639.5625 0)"/>
    <use xlink:href="#DejaVuSans-Bold-44" transform="translate(710.75 0)"/>
    <use xlink:href="#DejaVuSans-Bold-50" transform="translate(778.234375 0)"/>
    <use xlink:href="#DejaVuSans-Bold-4c" transform="translate(882.4375 0)"/>
    <use xlink:href="#DejaVuSans-Bold-46" transform="translate(916.71875 0)"/>
    <use xlink:href="#DejaVuSans-Bold-56" transform="translate(976 0)"/>
    <use xlink:href="#DejaVuSans-Bold-3" transform="translate(1035.515625 0)"/>
    <use xlink:href="#DejaVuSans-Bold-52" transform="translate(1070.328125 0)"/>
    <use xlink:href="#DejaVuSans-Bold-49" transform="translate(1139.03125 0)"/>
    <use xlink:href="#DejaVuSans-Bold-3" transform="translate(1182.53125 0)"/>
    <use xlink:href="#DejaVuSans-Bold-57" transform="translate(1217.34375 0)"/>
    <use xlink:href="#DejaVuSans-Bold-4b" transform="translate(1265.140625 0)"/>
    <use xlink:href="#DejaVuSans-Bold-48" transform="translate(1336.328125 0)"/>
    <use xlink:href="#DejaVuSans-Bold-3" transform="translate(1404.15625 0)"/>
    <use xlink:href="#DejaVuSans-Bold-2c" transform="translate(1438.96875 0)"/>
    <use xlink:href="#DejaVuSans-Bold-50" transform="translate(1476.171875 0)"/>
    <use xlink:href="#DejaVuSans-Bold-53" transform="translate(1580.375 0)"/>
    <use xlink:href="#DejaVuSans-Bold-4f" transform="translate(1651.953125 0)"/>
    <use xlink:href="#DejaVuSans-Bold-48" transform="translate(1686.234375 0)"/>
    <use xlink:href="#DejaVuSans-Bold-50" transform="translate(1754.0625 0)"/>
    <use xlink:href="#DejaVuSans-Bold-48" transform="translate(1858.265625 0)"/>
    <use xlink:href="#DejaVuSans-Bold-51" transform="translate(1926.09375 0)"/>
    <use xlink:href="#DejaVuSans-Bold-57" transform="translate(1997.28125 0)"/>
    <use xlink:href="#DejaVuSans-Bold-48" transform="translate(2045.078125 0)"/>
    <use xlink:href="#DejaVuSans-Bold-47" transform="translate(2112.90625 0)"/>
    <use xlink:href="#DejaVuSans-Bold-3" transform="translate(2184.484375 0)"/>
    <use xlink:href="#DejaVuSans-Bold-29" transform="translate(2219.296875 0)"/>
    <use xlink:href="#DejaVuSans-Bold-58" transform="translate(2282.625 0)"/>
    <use xlink:href="#DejaVuSans-Bold-56" transform="translate(2353.8125 0)"/>
    <use xlink:href="#DejaVuSans-Bold-4c" transform="translate(2413.328125 0)"/>
    <use xlink:href="#DejaVuSans-Bold-52" transform="translate(2447.609375 0)"/>
    <use xlink:href="#DejaVuSans-Bold-51" transform="translate(2516.3125 0)"/>
    <use xlink:href="#DejaVuSans-Bold-3" transform="translate(2587.5 0)"/>
    <use xlink:href="#DejaVuSans-Bold-33" transform="translate(2622.3125 0)"/>
    <use xlink:href="#DejaVuSans-Bold-4c" transform="translate(2695.609375 0)"/>
    <use xlink:href="#DejaVuSans-Bold-53" transform="translate(2729.890625 0)"/>
    <use xlink:href="#DejaVuSans-Bold-48" transform="translate(2801.46875 0)"/>
    <use xlink:href="#DejaVuSans-Bold-4f" transform="translate(2869.296875 0)"/>
    <use xlink:href="#DejaVuSans-Bold-4c" transform="translate(2903.578125 0)"/>
    <use xlink:href="#DejaVuSans-Bold-51" transform="translate(2937.859375 0)"/>
    <use xlink:href="#DejaVuSans-Bold-48" transform="translate(3009.046875 0)"/>
   </g>
  </g>
  <g id="text_43">
   <!-- Recorded histories from the saved checkpoints; the best Phase 3 validation loss occurred at epoch 27 -->
   <g style="fill: #627d98" transform="translate(164.233359 30.6) scale(0.105 -0.105)">
    <defs>
     <path id="DejaVuSans-35" d="M 2841 2188 
Q 3044 2119 3236 1894 
Q 3428 1669 3622 1275 
L 4263 0 
L 3584 0 
L 2988 1197 
Q 2756 1666 2539 1819 
Q 2322 1972 1947 1972 
L 1259 1972 
L 1259 0 
L 628 0 
L 628 4666 
L 2053 4666 
Q 2853 4666 3247 4331 
Q 3641 3997 3641 3322 
Q 3641 2881 3436 2590 
Q 3231 2300 2841 2188 
z
M 1259 4147 
L 1259 2491 
L 2053 2491 
Q 2509 2491 2742 2702 
Q 2975 2913 2975 3322 
Q 2975 3731 2742 3939 
Q 2509 4147 2053 4147 
L 1259 4147 
z
" transform="scale(0.015625)"/>
     <path id="DejaVuSans-49" d="M 2375 4863 
L 2375 4384 
L 1825 4384 
Q 1516 4384 1395 4259 
Q 1275 4134 1275 3809 
L 1275 3500 
L 2222 3500 
L 2222 3053 
L 1275 3053 
L 1275 0 
L 697 0 
L 697 3053 
L 147 3053 
L 147 3500 
L 697 3500 
L 697 3744 
Q 697 4328 969 4595 
Q 1241 4863 1831 4863 
L 2375 4863 
z
" transform="scale(0.015625)"/>
     <path id="DejaVuSans-50" d="M 3328 2828 
Q 3544 3216 3844 3400 
Q 4144 3584 4550 3584 
Q 5097 3584 5394 3201 
Q 5691 2819 5691 2113 
L 5691 0 
L 5113 0 
L 5113 2094 
Q 5113 2597 4934 2840 
Q 4756 3084 4391 3084 
Q 3944 3084 3684 2787 
Q 3425 2491 3425 1978 
L 3425 0 
L 2847 0 
L 2847 2094 
Q 2847 2600 2669 2842 
Q 2491 3084 2119 3084 
Q 1678 3084 1418 2786 
Q 1159 2488 1159 1978 
L 1159 0 
L 581 0 
L 581 3500 
L 1159 3500 
L 1159 2956 
Q 1356 3278 1631 3431 
Q 1906 3584 2284 3584 
Q 2666 3584 2933 3390 
Q 3200 3197 3328 2828 
z
" transform="scale(0.015625)"/>
     <path id="DejaVuSans-59" d="M 191 3500 
L 800 3500 
L 1894 563 
L 2988 3500 
L 3597 3500 
L 2284 0 
L 1503 0 
L 191 3500 
z
" transform="scale(0.015625)"/>
     <path id="DejaVuSans-4e" d="M 581 4863 
L 1159 4863 
L 1159 1991 
L 2875 3500 
L 3609 3500 
L 1753 1863 
L 3688 0 
L 2938 0 
L 1159 1709 
L 1159 0 
L 581 0 
L 581 4863 
z
" transform="scale(0.015625)"/>
     <path id="DejaVuSans-1e" d="M 750 3309 
L 1409 3309 
L 1409 2516 
L 750 2516 
L 750 3309 
z
M 750 794 
L 1409 794 
L 1409 256 
L 897 -744 
L 494 -744 
L 750 256 
L 750 794 
z
" transform="scale(0.015625)"/>
     <path id="DejaVuSans-45" d="M 3116 1747 
Q 3116 2381 2855 2742 
Q 2594 3103 2138 3103 
Q 1681 3103 1420 2742 
Q 1159 2381 1159 1747 
Q 1159 1113 1420 752 
Q 1681 391 2138 391 
Q 2594 391 2855 752 
Q 3116 1113 3116 1747 
z
M 1159 2969 
Q 1341 3281 1617 3432 
Q 1894 3584 2278 3584 
Q 2916 3584 3314 3078 
Q 3713 2572 3713 1747 
Q 3713 922 3314 415 
Q 2916 -91 2278 -91 
Q 1894 -91 1617 61 
Q 1341 213 1159 525 
L 1159 0 
L 581 0 
L 581 4863 
L 1159 4863 
L 1159 2969 
z
" transform="scale(0.015625)"/>
     <path id="DejaVuSans-33" d="M 1259 4147 
L 1259 2394 
L 2053 2394 
Q 2494 2394 2734 2622 
Q 2975 2850 2975 3272 
Q 2975 3691 2734 3919 
Q 2494 4147 2053 4147 
L 1259 4147 
z
M 628 4666 
L 2053 4666 
Q 2838 4666 3239 4311 
Q 3641 3956 3641 3272 
Q 3641 2581 3239 2228 
Q 2838 1875 2053 1875 
L 1259 1875 
L 1259 0 
L 628 0 
L 628 4666 
z
" transform="scale(0.015625)"/>
     <path id="DejaVuSans-58" d="M 544 1381 
L 544 3500 
L 1119 3500 
L 1119 1403 
Q 1119 906 1312 657 
Q 1506 409 1894 409 
Q 2359 409 2629 706 
Q 2900 1003 2900 1516 
L 2900 3500 
L 3475 3500 
L 3475 0 
L 2900 0 
L 2900 538 
Q 2691 219 2414 64 
Q 2138 -91 1772 -91 
Q 1169 -91 856 284 
Q 544 659 544 1381 
z
M 1991 3584 
L 1991 3584 
z
" transform="scale(0.015625)"/>
    </defs>
    <use xlink:href="#DejaVuSans-35"/>
    <use xlink:href="#DejaVuSans-48" transform="translate(65 0)"/>
    <use xlink:href="#DejaVuSans-46" transform="translate(126.53125 0)"/>
    <use xlink:href="#DejaVuSans-52" transform="translate(181.515625 0)"/>
    <use xlink:href="#DejaVuSans-55" transform="translate(242.703125 0)"/>
    <use xlink:href="#DejaVuSans-47" transform="translate(282.0625 0)"/>
    <use xlink:href="#DejaVuSans-48" transform="translate(345.546875 0)"/>
    <use xlink:href="#DejaVuSans-47" transform="translate(407.078125 0)"/>
    <use xlink:href="#DejaVuSans-3" transform="translate(470.5625 0)"/>
    <use xlink:href="#DejaVuSans-4b" transform="translate(502.34375 0)"/>
    <use xlink:href="#DejaVuSans-4c" transform="translate(565.71875 0)"/>
    <use xlink:href="#DejaVuSans-56" transform="translate(593.5 0)"/>
    <use xlink:href="#DejaVuSans-57" transform="translate(645.59375 0)"/>
    <use xlink:href="#DejaVuSans-52" transform="translate(684.796875 0)"/>
    <use xlink:href="#DejaVuSans-55" transform="translate(745.984375 0)"/>
    <use xlink:href="#DejaVuSans-4c" transform="translate(787.09375 0)"/>
    <use xlink:href="#DejaVuSans-48" transform="translate(814.875 0)"/>
    <use xlink:href="#DejaVuSans-56" transform="translate(876.40625 0)"/>
    <use xlink:href="#DejaVuSans-3" transform="translate(928.5 0)"/>
    <use xlink:href="#DejaVuSans-49" transform="translate(960.28125 0)"/>
    <use xlink:href="#DejaVuSans-55" transform="translate(995.484375 0)"/>
    <use xlink:href="#DejaVuSans-52" transform="translate(1034.390625 0)"/>
    <use xlink:href="#DejaVuSans-50" transform="translate(1095.578125 0)"/>
    <use xlink:href="#DejaVuSans-3" transform="translate(1192.984375 0)"/>
    <use xlink:href="#DejaVuSans-57" transform="translate(1224.765625 0)"/>
    <use xlink:href="#DejaVuSans-4b" transform="translate(1263.96875 0)"/>
    <use xlink:href="#DejaVuSans-48" transform="translate(1327.34375 0)"/>
    <use xlink:href="#DejaVuSans-3" transform="translate(1388.875 0)"/>
    <use xlink:href="#DejaVuSans-56" transform="translate(1420.65625 0)"/>
    <use xlink:href="#DejaVuSans-44" transform="translate(1472.75 0)"/>
    <use xlink:href="#DejaVuSans-59" transform="translate(1534.03125 0)"/>
    <use xlink:href="#DejaVuSans-48" transform="translate(1593.21875 0)"/>
    <use xlink:href="#DejaVuSans-47" transform="translate(1654.75 0)"/>
    <use xlink:href="#DejaVuSans-3" transform="translate(1718.234375 0)"/>
    <use xlink:href="#DejaVuSans-46" transform="translate(1750.015625 0)"/>
    <use xlink:href="#DejaVuSans-4b" transform="translate(1805 0)"/>
    <use xlink:href="#DejaVuSans-48" transform="translate(1868.375 0)"/>
    <use xlink:href="#DejaVuSans-46" transform="translate(1929.90625 0)"/>
    <use xlink:href="#DejaVuSans-4e" transform="translate(1984.890625 0)"/>
    <use xlink:href="#DejaVuSans-53" transform="translate(2042.796875 0)"/>
    <use xlink:href="#DejaVuSans-52" transform="translate(2106.28125 0)"/>
    <use xlink:href="#DejaVuSans-4c" transform="translate(2167.46875 0)"/>
    <use xlink:href="#DejaVuSans-51" transform="translate(2195.25 0)"/>
    <use xlink:href="#DejaVuSans-57" transform="translate(2258.625 0)"/>
    <use xlink:href="#DejaVuSans-56" transform="translate(2297.828125 0)"/>
    <use xlink:href="#DejaVuSans-1e" transform="translate(2349.921875 0)"/>
    <use xlink:href="#DejaVuSans-3" transform="translate(2383.609375 0)"/>
    <use xlink:href="#DejaVuSans-57" transform="translate(2415.390625 0)"/>
    <use xlink:href="#DejaVuSans-4b" transform="translate(2454.59375 0)"/>
    <use xlink:href="#DejaVuSans-48" transform="translate(2517.96875 0)"/>
    <use xlink:href="#DejaVuSans-3" transform="translate(2579.5 0)"/>
    <use xlink:href="#DejaVuSans-45" transform="translate(2611.28125 0)"/>
    <use xlink:href="#DejaVuSans-48" transform="translate(2674.765625 0)"/>
    <use xlink:href="#DejaVuSans-56" transform="translate(2736.296875 0)"/>
    <use xlink:href="#DejaVuSans-57" transform="translate(2788.390625 0)"/>
    <use xlink:href="#DejaVuSans-3" transform="translate(2827.59375 0)"/>
    <use xlink:href="#DejaVuSans-33" transform="translate(2859.375 0)"/>
    <use xlink:href="#DejaVuSans-4b" transform="translate(2919.671875 0)"/>
    <use xlink:href="#DejaVuSans-44" transform="translate(2983.046875 0)"/>
    <use xlink:href="#DejaVuSans-56" transform="translate(3044.328125 0)"/>
    <use xlink:href="#DejaVuSans-48" transform="translate(3096.421875 0)"/>
    <use xlink:href="#DejaVuSans-3" transform="translate(3157.953125 0)"/>
    <use xlink:href="#DejaVuSans-16" transform="translate(3189.734375 0)"/>
    <use xlink:href="#DejaVuSans-3" transform="translate(3253.359375 0)"/>
    <use xlink:href="#DejaVuSans-59" transform="translate(3285.140625 0)"/>
    <use xlink:href="#DejaVuSans-44" transform="translate(3344.328125 0)"/>
    <use xlink:href="#DejaVuSans-4f" transform="translate(3405.609375 0)"/>
    <use xlink:href="#DejaVuSans-4c" transform="translate(3433.390625 0)"/>
    <use xlink:href="#DejaVuSans-47" transform="translate(3461.171875 0)"/>
    <use xlink:href="#DejaVuSans-44" transform="translate(3524.65625 0)"/>
    <use xlink:href="#DejaVuSans-57" transform="translate(3585.9375 0)"/>
    <use xlink:href="#DejaVuSans-4c" transform="translate(3625.140625 0)"/>
    <use xlink:href="#DejaVuSans-52" transform="translate(3652.921875 0)"/>
    <use xlink:href="#DejaVuSans-51" transform="translate(3714.109375 0)"/>
    <use xlink:href="#DejaVuSans-3" transform="translate(3777.484375 0)"/>
    <use xlink:href="#DejaVuSans-4f" transform="translate(3809.265625 0)"/>
    <use xlink:href="#DejaVuSans-52" transform="translate(3837.046875 0)"/>
    <use xlink:href="#DejaVuSans-56" transform="translate(3898.234375 0)"/>
    <use xlink:href="#DejaVuSans-56" transform="translate(3950.328125 0)"/>
    <use xlink:href="#DejaVuSans-3" transform="translate(4002.421875 0)"/>
    <use xlink:href="#DejaVuSans-52" transform="translate(4034.203125 0)"/>
    <use xlink:href="#DejaVuSans-46" transform="translate(4095.390625 0)"/>
    <use xlink:href="#DejaVuSans-46" transform="translate(4150.375 0)"/>
    <use xlink:href="#DejaVuSans-58" transform="translate(4205.359375 0)"/>
    <use xlink:href="#DejaVuSans-55" transform="translate(4268.734375 0)"/>
    <use xlink:href="#DejaVuSans-55" transform="translate(4308.09375 0)"/>
    <use xlink:href="#DejaVuSans-48" transform="translate(4347 0)"/>
    <use xlink:href="#DejaVuSans-47" transform="translate(4408.53125 0)"/>
    <use xlink:href="#DejaVuSans-3" transform="translate(4472.015625 0)"/>
    <use xlink:href="#DejaVuSans-44" transform="translate(4503.796875 0)"/>
    <use xlink:href="#DejaVuSans-57" transform="translate(4565.078125 0)"/>
    <use xlink:href="#DejaVuSans-3" transform="translate(4604.28125 0)"/>
    <use xlink:href="#DejaVuSans-48" transform="translate(4636.0625 0)"/>
    <use xlink:href="#DejaVuSans-53" transform="translate(4697.59375 0)"/>
    <use xlink:href="#DejaVuSans-52" transform="translate(4761.078125 0)"/>
    <use xlink:href="#DejaVuSans-46" transform="translate(4822.265625 0)"/>
    <use xlink:href="#DejaVuSans-4b" transform="translate(4877.25 0)"/>
    <use xlink:href="#DejaVuSans-3" transform="translate(4940.625 0)"/>
    <use xlink:href="#DejaVuSans-15" transform="translate(4972.40625 0)"/>
    <use xlink:href="#DejaVuSans-1a" transform="translate(5036.03125 0)"/>
   </g>
  </g>
 </g>
 <defs>
  <clipPath id="p3955c2bb58">
   <rect x="53.965312" y="54" width="355.090909" height="360.36"/>
  </clipPath>
  <clipPath id="pe3194e5f94">
   <rect x="480.074403" y="54" width="355.090909" height="360.36"/>
  </clipPath>
 </defs>
</svg>
